<?xml version="1.0" encoding="utf-8" standalone="no"?>
<!DOCTYPE svg PUBLIC "-//W3C//DTD SVG 1.1//EN"
  "http://www.w3.org/Graphics/SVG/1.1/DTD/svg11.dtd">
<svg xmlns:xlink="http://www.w3.org/1999/xlink" width="1298.16pt" height="360.72pt" viewBox="0 0 1298.16 360.72" xmlns="http://www.w3.org/2000/svg" version="1.1">
 <metadata>
  <rdf:RDF xmlns:dc="http://purl.org/dc/elements/1.1/" xmlns:cc="http://creativecommons.org/ns#" xmlns:rdf="http://www.w3.org/1999/02/22-rdf-syntax-ns#">
   <cc:Work>
    <dc:type rdf:resource="http://purl.org/dc/dcmitype/StillImage"/>
    <dc:date>2023-10-17T15:36:23.170182</dc:date>
    <dc:format>image/svg+xml</dc:format>
    <dc:creator>
     <cc:Agent>
      <dc:title>Matplotlib v3.5.3, https://matplotlib.org/</dc:title>
     </cc:Agent>
    </dc:creator>
   </cc:Work>
  </rdf:RDF>
 </metadata>
 <defs>
  <style type="text/css">*{stroke-linejoin: round; stroke-linecap: butt}</style>
 </defs>
 <g id="figure_1">
  <g id="patch_1">
   <path d="M 0 360.72 
L 1298.16 360.72 
L 1298.16 0 
L 0 0 
z
" style="fill: #ffffff"/>
  </g>
  <g id="axes_1">
   <g id="patch_2">
    <path d="M 162.27 169.5384 
L 1168.344 169.5384 
L 1168.344 43.2864 
L 162.27 43.2864 
z
" style="fill: #ffffff"/>
   </g>
   <g id="patch_3">
    <path d="M 182.718659 169.5384 
L 248.154366 169.5384 
L 248.154366 49.2984 
L 182.718659 49.2984 
z
" clip-path="url(#p763380d442)" style="fill: #800000"/>
   </g>
   <g id="patch_4">
    <path d="M 264.513293 169.5384 
L 329.949 169.5384 
L 329.949 97.213588 
L 264.513293 97.213588 
z
" clip-path="url(#p763380d442)" style="fill: #800000"/>
   </g>
   <g id="patch_5">
    <path d="M 346.307927 169.5384 
L 411.743634 169.5384 
L 411.743634 106.254189 
L 346.307927 106.254189 
z
" clip-path="url(#p763380d442)" style="fill: #800000"/>
   </g>
   <g id="patch_6">
    <path d="M 428.102561 169.5384 
L 493.538268 169.5384 
L 493.538268 124.034039 
L 428.102561 124.034039 
z
" clip-path="url(#p763380d442)" style="fill: #800000"/>
   </g>
   <g id="patch_7">
    <path d="M 509.897195 169.5384 
L 575.332902 169.5384 
L 575.332902 130.36246 
L 509.897195 130.36246 
z
" clip-path="url(#p763380d442)" style="fill: #800000"/>
   </g>
   <g id="patch_8">
    <path d="M 591.691829 169.5384 
L 657.127537 169.5384 
L 657.127537 146.032836 
L 591.691829 146.032836 
z
" clip-path="url(#p763380d442)" style="fill: #800000"/>
   </g>
   <g id="patch_9">
    <path d="M 673.486463 169.5384 
L 738.922171 169.5384 
L 738.922171 159.292385 
L 673.486463 159.292385 
z
" clip-path="url(#p763380d442)" style="fill: #800000"/>
   </g>
   <g id="patch_10">
    <path d="M 755.281098 169.5384 
L 820.716805 169.5384 
L 820.716805 164.716746 
L 755.281098 164.716746 
z
" clip-path="url(#p763380d442)" style="fill: #800000"/>
   </g>
   <g id="patch_11">
    <path d="M 837.075732 169.5384 
L 902.511439 169.5384 
L 902.511439 167.428926 
L 837.075732 167.428926 
z
" clip-path="url(#p763380d442)" style="fill: #800000"/>
   </g>
   <g id="patch_12">
    <path d="M 918.870366 169.5384 
L 984.306073 169.5384 
L 984.306073 167.73028 
L 918.870366 167.73028 
z
" clip-path="url(#p763380d442)" style="fill: #800000"/>
   </g>
   <g id="patch_13">
    <path d="M 1000.665 169.5384 
L 1066.100707 169.5384 
L 1066.100707 168.935693 
L 1000.665 168.935693 
z
" clip-path="url(#p763380d442)" style="fill: #800000"/>
   </g>
   <g id="patch_14">
    <path d="M 1082.459634 169.5384 
L 1147.895341 169.5384 
L 1147.895341 169.237047 
L 1082.459634 169.237047 
z
" clip-path="url(#p763380d442)" style="fill: #800000"/>
   </g>
   <g id="matplotlib.axis_1">
    <g id="xtick_1">
     <g id="line2d_1">
      <defs>
       <path id="m0a652506ba" d="M 0 0 
L 0 3.5 
" style="stroke: #000000; stroke-width: 0.8"/>
      </defs>
      <g>
       <use xlink:href="#m0a652506ba" x="215.436512" y="169.5384" style="stroke: #000000; stroke-width: 0.8"/>
      </g>
     </g>
     <g id="text_1">
      <!-- 1 -->
      <g transform="translate(218.195887 182.9009)rotate(-90)scale(0.1 -0.1)">
       <defs>
        <path id="DejaVuSans-31" d="M 794 531 
L 1825 531 
L 1825 4091 
L 703 3866 
L 703 4441 
L 1819 4666 
L 2450 4666 
L 2450 531 
L 3481 531 
L 3481 0 
L 794 0 
L 794 531 
z
" transform="scale(0.015625)"/>
       </defs>
       <use xlink:href="#DejaVuSans-31"/>
      </g>
     </g>
    </g>
    <g id="xtick_2">
     <g id="line2d_2">
      <g>
       <use xlink:href="#m0a652506ba" x="297.231146" y="169.5384" style="stroke: #000000; stroke-width: 0.8"/>
      </g>
     </g>
     <g id="text_2">
      <!-- 2 -->
      <g transform="translate(299.990521 182.9009)rotate(-90)scale(0.1 -0.1)">
       <defs>
        <path id="DejaVuSans-32" d="M 1228 531 
L 3431 531 
L 3431 0 
L 469 0 
L 469 531 
Q 828 903 1448 1529 
Q 2069 2156 2228 2338 
Q 2531 2678 2651 2914 
Q 2772 3150 2772 3378 
Q 2772 3750 2511 3984 
Q 2250 4219 1831 4219 
Q 1534 4219 1204 4116 
Q 875 4013 500 3803 
L 500 4441 
Q 881 4594 1212 4672 
Q 1544 4750 1819 4750 
Q 2544 4750 2975 4387 
Q 3406 4025 3406 3419 
Q 3406 3131 3298 2873 
Q 3191 2616 2906 2266 
Q 2828 2175 2409 1742 
Q 1991 1309 1228 531 
z
" transform="scale(0.015625)"/>
       </defs>
       <use xlink:href="#DejaVuSans-32"/>
      </g>
     </g>
    </g>
    <g id="xtick_3">
     <g id="line2d_3">
      <g>
       <use xlink:href="#m0a652506ba" x="379.02578" y="169.5384" style="stroke: #000000; stroke-width: 0.8"/>
      </g>
     </g>
     <g id="text_3">
      <!-- 3 -->
      <g transform="translate(381.785155 182.9009)rotate(-90)scale(0.1 -0.1)">
       <defs>
        <path id="DejaVuSans-33" d="M 2597 2516 
Q 3050 2419 3304 2112 
Q 3559 1806 3559 1356 
Q 3559 666 3084 287 
Q 2609 -91 1734 -91 
Q 1441 -91 1130 -33 
Q 819 25 488 141 
L 488 750 
Q 750 597 1062 519 
Q 1375 441 1716 441 
Q 2309 441 2620 675 
Q 2931 909 2931 1356 
Q 2931 1769 2642 2001 
Q 2353 2234 1838 2234 
L 1294 2234 
L 1294 2753 
L 1863 2753 
Q 2328 2753 2575 2939 
Q 2822 3125 2822 3475 
Q 2822 3834 2567 4026 
Q 2313 4219 1838 4219 
Q 1578 4219 1281 4162 
Q 984 4106 628 3988 
L 628 4550 
Q 988 4650 1302 4700 
Q 1616 4750 1894 4750 
Q 2613 4750 3031 4423 
Q 3450 4097 3450 3541 
Q 3450 3153 3228 2886 
Q 3006 2619 2597 2516 
z
" transform="scale(0.015625)"/>
       </defs>
       <use xlink:href="#DejaVuSans-33"/>
      </g>
     </g>
    </g>
    <g id="xtick_4">
     <g id="line2d_4">
      <g>
       <use xlink:href="#m0a652506ba" x="460.820415" y="169.5384" style="stroke: #000000; stroke-width: 0.8"/>
      </g>
     </g>
     <g id="text_4">
      <!-- 4 -->
      <g transform="translate(463.57979 182.9009)rotate(-90)scale(0.1 -0.1)">
       <defs>
        <path id="DejaVuSans-34" d="M 2419 4116 
L 825 1625 
L 2419 1625 
L 2419 4116 
z
M 2253 4666 
L 3047 4666 
L 3047 1625 
L 3713 1625 
L 3713 1100 
L 3047 1100 
L 3047 0 
L 2419 0 
L 2419 1100 
L 313 1100 
L 313 1709 
L 2253 4666 
z
" transform="scale(0.015625)"/>
       </defs>
       <use xlink:href="#DejaVuSans-34"/>
      </g>
     </g>
    </g>
    <g id="xtick_5">
     <g id="line2d_5">
      <g>
       <use xlink:href="#m0a652506ba" x="542.615049" y="169.5384" style="stroke: #000000; stroke-width: 0.8"/>
      </g>
     </g>
     <g id="text_5">
      <!-- 5 -->
      <g transform="translate(545.374424 182.9009)rotate(-90)scale(0.1 -0.1)">
       <defs>
        <path id="DejaVuSans-35" d="M 691 4666 
L 3169 4666 
L 3169 4134 
L 1269 4134 
L 1269 2991 
Q 1406 3038 1543 3061 
Q 1681 3084 1819 3084 
Q 2600 3084 3056 2656 
Q 3513 2228 3513 1497 
Q 3513 744 3044 326 
Q 2575 -91 1722 -91 
Q 1428 -91 1123 -41 
Q 819 9 494 109 
L 494 744 
Q 775 591 1075 516 
Q 1375 441 1709 441 
Q 2250 441 2565 725 
Q 2881 1009 2881 1497 
Q 2881 1984 2565 2268 
Q 2250 2553 1709 2553 
Q 1456 2553 1204 2497 
Q 953 2441 691 2322 
L 691 4666 
z
" transform="scale(0.015625)"/>
       </defs>
       <use xlink:href="#DejaVuSans-35"/>
      </g>
     </g>
    </g>
    <g id="xtick_6">
     <g id="line2d_6">
      <g>
       <use xlink:href="#m0a652506ba" x="624.409683" y="169.5384" style="stroke: #000000; stroke-width: 0.8"/>
      </g>
     </g>
     <g id="text_6">
      <!-- 6 -->
      <g transform="translate(627.169058 182.9009)rotate(-90)scale(0.1 -0.1)">
       <defs>
        <path id="DejaVuSans-36" d="M 2113 2584 
Q 1688 2584 1439 2293 
Q 1191 2003 1191 1497 
Q 1191 994 1439 701 
Q 1688 409 2113 409 
Q 2538 409 2786 701 
Q 3034 994 3034 1497 
Q 3034 2003 2786 2293 
Q 2538 2584 2113 2584 
z
M 3366 4563 
L 3366 3988 
Q 3128 4100 2886 4159 
Q 2644 4219 2406 4219 
Q 1781 4219 1451 3797 
Q 1122 3375 1075 2522 
Q 1259 2794 1537 2939 
Q 1816 3084 2150 3084 
Q 2853 3084 3261 2657 
Q 3669 2231 3669 1497 
Q 3669 778 3244 343 
Q 2819 -91 2113 -91 
Q 1303 -91 875 529 
Q 447 1150 447 2328 
Q 447 3434 972 4092 
Q 1497 4750 2381 4750 
Q 2619 4750 2861 4703 
Q 3103 4656 3366 4563 
z
" transform="scale(0.015625)"/>
       </defs>
       <use xlink:href="#DejaVuSans-36"/>
      </g>
     </g>
    </g>
    <g id="xtick_7">
     <g id="line2d_7">
      <g>
       <use xlink:href="#m0a652506ba" x="706.204317" y="169.5384" style="stroke: #000000; stroke-width: 0.8"/>
      </g>
     </g>
     <g id="text_7">
      <!-- 7 -->
      <g transform="translate(708.963692 182.9009)rotate(-90)scale(0.1 -0.1)">
       <defs>
        <path id="DejaVuSans-37" d="M 525 4666 
L 3525 4666 
L 3525 4397 
L 1831 0 
L 1172 0 
L 2766 4134 
L 525 4134 
L 525 4666 
z
" transform="scale(0.015625)"/>
       </defs>
       <use xlink:href="#DejaVuSans-37"/>
      </g>
     </g>
    </g>
    <g id="xtick_8">
     <g id="line2d_8">
      <g>
       <use xlink:href="#m0a652506ba" x="787.998951" y="169.5384" style="stroke: #000000; stroke-width: 0.8"/>
      </g>
     </g>
     <g id="text_8">
      <!-- 8 -->
      <g transform="translate(790.758326 182.9009)rotate(-90)scale(0.1 -0.1)">
       <defs>
        <path id="DejaVuSans-38" d="M 2034 2216 
Q 1584 2216 1326 1975 
Q 1069 1734 1069 1313 
Q 1069 891 1326 650 
Q 1584 409 2034 409 
Q 2484 409 2743 651 
Q 3003 894 3003 1313 
Q 3003 1734 2745 1975 
Q 2488 2216 2034 2216 
z
M 1403 2484 
Q 997 2584 770 2862 
Q 544 3141 544 3541 
Q 544 4100 942 4425 
Q 1341 4750 2034 4750 
Q 2731 4750 3128 4425 
Q 3525 4100 3525 3541 
Q 3525 3141 3298 2862 
Q 3072 2584 2669 2484 
Q 3125 2378 3379 2068 
Q 3634 1759 3634 1313 
Q 3634 634 3220 271 
Q 2806 -91 2034 -91 
Q 1263 -91 848 271 
Q 434 634 434 1313 
Q 434 1759 690 2068 
Q 947 2378 1403 2484 
z
M 1172 3481 
Q 1172 3119 1398 2916 
Q 1625 2713 2034 2713 
Q 2441 2713 2670 2916 
Q 2900 3119 2900 3481 
Q 2900 3844 2670 4047 
Q 2441 4250 2034 4250 
Q 1625 4250 1398 4047 
Q 1172 3844 1172 3481 
z
" transform="scale(0.015625)"/>
       </defs>
       <use xlink:href="#DejaVuSans-38"/>
      </g>
     </g>
    </g>
    <g id="xtick_9">
     <g id="line2d_9">
      <g>
       <use xlink:href="#m0a652506ba" x="869.793585" y="169.5384" style="stroke: #000000; stroke-width: 0.8"/>
      </g>
     </g>
     <g id="text_9">
      <!-- 9 -->
      <g transform="translate(872.55296 182.9009)rotate(-90)scale(0.1 -0.1)">
       <defs>
        <path id="DejaVuSans-39" d="M 703 97 
L 703 672 
Q 941 559 1184 500 
Q 1428 441 1663 441 
Q 2288 441 2617 861 
Q 2947 1281 2994 2138 
Q 2813 1869 2534 1725 
Q 2256 1581 1919 1581 
Q 1219 1581 811 2004 
Q 403 2428 403 3163 
Q 403 3881 828 4315 
Q 1253 4750 1959 4750 
Q 2769 4750 3195 4129 
Q 3622 3509 3622 2328 
Q 3622 1225 3098 567 
Q 2575 -91 1691 -91 
Q 1453 -91 1209 -44 
Q 966 3 703 97 
z
M 1959 2075 
Q 2384 2075 2632 2365 
Q 2881 2656 2881 3163 
Q 2881 3666 2632 3958 
Q 2384 4250 1959 4250 
Q 1534 4250 1286 3958 
Q 1038 3666 1038 3163 
Q 1038 2656 1286 2365 
Q 1534 2075 1959 2075 
z
" transform="scale(0.015625)"/>
       </defs>
       <use xlink:href="#DejaVuSans-39"/>
      </g>
     </g>
    </g>
    <g id="xtick_10">
     <g id="line2d_10">
      <g>
       <use xlink:href="#m0a652506ba" x="951.58822" y="169.5384" style="stroke: #000000; stroke-width: 0.8"/>
      </g>
     </g>
     <g id="text_10">
      <!-- 10 -->
      <g transform="translate(954.347595 189.2634)rotate(-90)scale(0.1 -0.1)">
       <defs>
        <path id="DejaVuSans-30" d="M 2034 4250 
Q 1547 4250 1301 3770 
Q 1056 3291 1056 2328 
Q 1056 1369 1301 889 
Q 1547 409 2034 409 
Q 2525 409 2770 889 
Q 3016 1369 3016 2328 
Q 3016 3291 2770 3770 
Q 2525 4250 2034 4250 
z
M 2034 4750 
Q 2819 4750 3233 4129 
Q 3647 3509 3647 2328 
Q 3647 1150 3233 529 
Q 2819 -91 2034 -91 
Q 1250 -91 836 529 
Q 422 1150 422 2328 
Q 422 3509 836 4129 
Q 1250 4750 2034 4750 
z
" transform="scale(0.015625)"/>
       </defs>
       <use xlink:href="#DejaVuSans-31"/>
       <use xlink:href="#DejaVuSans-30" x="63.623047"/>
      </g>
     </g>
    </g>
    <g id="xtick_11">
     <g id="line2d_11">
      <g>
       <use xlink:href="#m0a652506ba" x="1033.382854" y="169.5384" style="stroke: #000000; stroke-width: 0.8"/>
      </g>
     </g>
     <g id="text_11">
      <!-- 11 -->
      <g transform="translate(1036.142229 189.2634)rotate(-90)scale(0.1 -0.1)">
       <use xlink:href="#DejaVuSans-31"/>
       <use xlink:href="#DejaVuSans-31" x="63.623047"/>
      </g>
     </g>
    </g>
    <g id="xtick_12">
     <g id="line2d_12">
      <g>
       <use xlink:href="#m0a652506ba" x="1115.177488" y="169.5384" style="stroke: #000000; stroke-width: 0.8"/>
      </g>
     </g>
     <g id="text_12">
      <!-- 12 -->
      <g transform="translate(1117.936863 189.2634)rotate(-90)scale(0.1 -0.1)">
       <use xlink:href="#DejaVuSans-31"/>
       <use xlink:href="#DejaVuSans-32" x="63.623047"/>
      </g>
     </g>
    </g>
   </g>
   <g id="matplotlib.axis_2">
    <g id="ytick_1">
     <g id="line2d_13">
      <defs>
       <path id="mc07d7d6d33" d="M 0 0 
L -3.5 0 
" style="stroke: #000000; stroke-width: 0.8"/>
      </defs>
      <g>
       <use xlink:href="#mc07d7d6d33" x="162.27" y="169.5384" style="stroke: #000000; stroke-width: 0.8"/>
      </g>
     </g>
     <g id="text_13">
      <!-- 0 -->
      <g transform="translate(148.9075 173.337619)scale(0.1 -0.1)">
       <use xlink:href="#DejaVuSans-30"/>
      </g>
     </g>
    </g>
    <g id="ytick_2">
     <g id="line2d_14">
      <g>
       <use xlink:href="#mc07d7d6d33" x="162.27" y="139.403062" style="stroke: #000000; stroke-width: 0.8"/>
      </g>
     </g>
     <g id="text_14">
      <!-- 100 -->
      <g transform="translate(136.1825 143.20228)scale(0.1 -0.1)">
       <use xlink:href="#DejaVuSans-31"/>
       <use xlink:href="#DejaVuSans-30" x="63.623047"/>
       <use xlink:href="#DejaVuSans-30" x="127.246094"/>
      </g>
     </g>
    </g>
    <g id="ytick_3">
     <g id="line2d_15">
      <g>
       <use xlink:href="#mc07d7d6d33" x="162.27" y="109.267723" style="stroke: #000000; stroke-width: 0.8"/>
      </g>
     </g>
     <g id="text_15">
      <!-- 200 -->
      <g transform="translate(136.1825 113.066942)scale(0.1 -0.1)">
       <use xlink:href="#DejaVuSans-32"/>
       <use xlink:href="#DejaVuSans-30" x="63.623047"/>
       <use xlink:href="#DejaVuSans-30" x="127.246094"/>
      </g>
     </g>
    </g>
    <g id="ytick_4">
     <g id="line2d_16">
      <g>
       <use xlink:href="#mc07d7d6d33" x="162.27" y="79.132385" style="stroke: #000000; stroke-width: 0.8"/>
      </g>
     </g>
     <g id="text_16">
      <!-- 300 -->
      <g transform="translate(136.1825 82.931604)scale(0.1 -0.1)">
       <use xlink:href="#DejaVuSans-33"/>
       <use xlink:href="#DejaVuSans-30" x="63.623047"/>
       <use xlink:href="#DejaVuSans-30" x="127.246094"/>
      </g>
     </g>
    </g>
    <g id="ytick_5">
     <g id="line2d_17">
      <g>
       <use xlink:href="#mc07d7d6d33" x="162.27" y="48.997047" style="stroke: #000000; stroke-width: 0.8"/>
      </g>
     </g>
     <g id="text_17">
      <!-- 400 -->
      <g transform="translate(136.1825 52.796265)scale(0.1 -0.1)">
       <use xlink:href="#DejaVuSans-34"/>
       <use xlink:href="#DejaVuSans-30" x="63.623047"/>
       <use xlink:href="#DejaVuSans-30" x="127.246094"/>
      </g>
     </g>
    </g>
   </g>
   <g id="patch_15">
    <path d="M 162.27 169.5384 
L 162.27 43.2864 
" style="fill: none; stroke: #000000; stroke-width: 0.8; stroke-linejoin: miter; stroke-linecap: square"/>
   </g>
   <g id="patch_16">
    <path d="M 1168.344 169.5384 
L 1168.344 43.2864 
" style="fill: none; stroke: #000000; stroke-width: 0.8; stroke-linejoin: miter; stroke-linecap: square"/>
   </g>
   <g id="patch_17">
    <path d="M 162.27 169.5384 
L 1168.344 169.5384 
" style="fill: none; stroke: #000000; stroke-width: 0.8; stroke-linejoin: miter; stroke-linecap: square"/>
   </g>
   <g id="patch_18">
    <path d="M 162.27 43.2864 
L 1168.344 43.2864 
" style="fill: none; stroke: #000000; stroke-width: 0.8; stroke-linejoin: miter; stroke-linecap: square"/>
   </g>
  </g>
  <g id="axes_2">
   <g id="patch_19">
    <path d="M 162.27 321.0408 
L 1168.344 321.0408 
L 1168.344 194.7888 
L 162.27 194.7888 
z
" style="fill: #ffffff"/>
   </g>
   <g id="patch_20">
    <path d="M 182.718659 321.0408 
L 248.154366 321.0408 
L 248.154366 248.77656 
L 182.718659 248.77656 
z
" clip-path="url(#p6bb7f0021b)" style="fill: #8a2be2"/>
   </g>
   <g id="patch_21">
    <path d="M 264.513293 321.0408 
L 329.949 321.0408 
L 329.949 229.6584 
L 264.513293 229.6584 
z
" clip-path="url(#p6bb7f0021b)" style="fill: #8a2be2"/>
   </g>
   <g id="patch_22">
    <path d="M 346.307927 321.0408 
L 411.743634 321.0408 
L 411.743634 226.0512 
L 346.307927 226.0512 
z
" clip-path="url(#p6bb7f0021b)" style="fill: #8a2be2"/>
   </g>
   <g id="patch_23">
    <path d="M 428.102561 321.0408 
L 493.538268 321.0408 
L 493.538268 218.95704 
L 428.102561 218.95704 
z
" clip-path="url(#p6bb7f0021b)" style="fill: #8a2be2"/>
   </g>
   <g id="patch_24">
    <path d="M 509.897195 321.0408 
L 575.332902 321.0408 
L 575.332902 216.432 
L 509.897195 216.432 
z
" clip-path="url(#p6bb7f0021b)" style="fill: #8a2be2"/>
   </g>
   <g id="patch_25">
    <path d="M 591.691829 321.0408 
L 657.127537 321.0408 
L 657.127537 210.17952 
L 591.691829 210.17952 
z
" clip-path="url(#p6bb7f0021b)" style="fill: #8a2be2"/>
   </g>
   <g id="patch_26">
    <path d="M 673.486463 321.0408 
L 738.922171 321.0408 
L 738.922171 204.88896 
L 673.486463 204.88896 
z
" clip-path="url(#p6bb7f0021b)" style="fill: #8a2be2"/>
   </g>
   <g id="patch_27">
    <path d="M 755.281098 321.0408 
L 820.716805 321.0408 
L 820.716805 202.72464 
L 755.281098 202.72464 
z
" clip-path="url(#p6bb7f0021b)" style="fill: #8a2be2"/>
   </g>
   <g id="patch_28">
    <path d="M 837.075732 321.0408 
L 902.511439 321.0408 
L 902.511439 201.64248 
L 837.075732 201.64248 
z
" clip-path="url(#p6bb7f0021b)" style="fill: #8a2be2"/>
   </g>
   <g id="patch_29">
    <path d="M 918.870366 321.0408 
L 984.306073 321.0408 
L 984.306073 201.52224 
L 918.870366 201.52224 
z
" clip-path="url(#p6bb7f0021b)" style="fill: #8a2be2"/>
   </g>
   <g id="patch_30">
    <path d="M 1000.665 321.0408 
L 1066.100707 321.0408 
L 1066.100707 201.04128 
L 1000.665 201.04128 
z
" clip-path="url(#p6bb7f0021b)" style="fill: #8a2be2"/>
   </g>
   <g id="patch_31">
    <path d="M 1082.459634 321.0408 
L 1147.895341 321.0408 
L 1147.895341 200.92104 
L 1082.459634 200.92104 
z
" clip-path="url(#p6bb7f0021b)" style="fill: #8a2be2"/>
   </g>
   <g id="patch_32">
    <path d="M 182.718659 248.77656 
L 248.154366 248.77656 
L 248.154366 247.21344 
L 182.718659 247.21344 
z
" clip-path="url(#p6bb7f0021b)" style="fill: #1e90ff"/>
   </g>
   <g id="patch_33">
    <path d="M 264.513293 229.6584 
L 329.949 229.6584 
L 329.949 225.08928 
L 264.513293 225.08928 
z
" clip-path="url(#p6bb7f0021b)" style="fill: #1e90ff"/>
   </g>
   <g id="patch_34">
    <path d="M 346.307927 226.0512 
L 411.743634 226.0512 
L 411.743634 221.72256 
L 346.307927 221.72256 
z
" clip-path="url(#p6bb7f0021b)" style="fill: #1e90ff"/>
   </g>
   <g id="patch_35">
    <path d="M 428.102561 218.95704 
L 493.538268 218.95704 
L 493.538268 215.95104 
L 428.102561 215.95104 
z
" clip-path="url(#p6bb7f0021b)" style="fill: #1e90ff"/>
   </g>
   <g id="patch_36">
    <path d="M 509.897195 216.432 
L 575.332902 216.432 
L 575.332902 214.14744 
L 509.897195 214.14744 
z
" clip-path="url(#p6bb7f0021b)" style="fill: #1e90ff"/>
   </g>
   <g id="patch_37">
    <path d="M 591.691829 210.17952 
L 657.127537 210.17952 
L 657.127537 207.414 
L 591.691829 207.414 
z
" clip-path="url(#p6bb7f0021b)" style="fill: #1e90ff"/>
   </g>
   <g id="patch_38">
    <path d="M 673.486463 204.88896 
L 738.922171 204.88896 
L 738.922171 204.16752 
L 673.486463 204.16752 
z
" clip-path="url(#p6bb7f0021b)" style="fill: #1e90ff"/>
   </g>
   <g id="patch_39">
    <path d="M 755.281098 202.72464 
L 820.716805 202.72464 
L 820.716805 201.76272 
L 755.281098 201.76272 
z
" clip-path="url(#p6bb7f0021b)" style="fill: #1e90ff"/>
   </g>
   <g id="patch_40">
    <path d="M 837.075732 201.64248 
L 902.511439 201.64248 
L 902.511439 201.04128 
L 837.075732 201.04128 
z
" clip-path="url(#p6bb7f0021b)" style="fill: #1e90ff"/>
   </g>
   <g id="patch_41">
    <path d="M 918.870366 201.52224 
L 984.306073 201.52224 
L 984.306073 200.92104 
L 918.870366 200.92104 
z
" clip-path="url(#p6bb7f0021b)" style="fill: #1e90ff"/>
   </g>
   <g id="patch_42">
    <path d="M 1000.665 201.04128 
L 1066.100707 201.04128 
L 1066.100707 200.92104 
L 1000.665 200.92104 
z
" clip-path="url(#p6bb7f0021b)" style="fill: #1e90ff"/>
   </g>
   <g id="patch_43">
    <path d="M 1082.459634 200.92104 
L 1147.895341 200.92104 
L 1147.895341 200.8008 
L 1082.459634 200.8008 
z
" clip-path="url(#p6bb7f0021b)" style="fill: #1e90ff"/>
   </g>
   <g id="patch_44">
    <path d="M 182.718659 247.21344 
L 248.154366 247.21344 
L 248.154366 239.03712 
L 182.718659 239.03712 
z
" clip-path="url(#p6bb7f0021b)" style="fill: #00bfff"/>
   </g>
   <g id="patch_45">
    <path d="M 264.513293 225.08928 
L 329.949 225.08928 
L 329.949 211.14144 
L 264.513293 211.14144 
z
" clip-path="url(#p6bb7f0021b)" style="fill: #00bfff"/>
   </g>
   <g id="patch_46">
    <path d="M 346.307927 221.72256 
L 411.743634 221.72256 
L 411.743634 204.04728 
L 346.307927 204.04728 
z
" clip-path="url(#p6bb7f0021b)" style="fill: #00bfff"/>
   </g>
   <g id="patch_47">
    <path d="M 428.102561 215.95104 
L 493.538268 215.95104 
L 493.538268 201.04128 
L 428.102561 201.04128 
z
" clip-path="url(#p6bb7f0021b)" style="fill: #00bfff"/>
   </g>
   <g id="patch_48">
    <path d="M 509.897195 214.14744 
L 575.332902 214.14744 
L 575.332902 200.8008 
L 509.897195 200.8008 
z
" clip-path="url(#p6bb7f0021b)" style="fill: #00bfff"/>
   </g>
   <g id="patch_49">
    <path d="M 591.691829 207.414 
L 657.127537 207.414 
L 657.127537 200.8008 
L 591.691829 200.8008 
z
" clip-path="url(#p6bb7f0021b)" style="fill: #00bfff"/>
   </g>
   <g id="patch_50">
    <path d="M 673.486463 204.16752 
L 738.922171 204.16752 
L 738.922171 200.8008 
L 673.486463 200.8008 
z
" clip-path="url(#p6bb7f0021b)" style="fill: #00bfff"/>
   </g>
   <g id="patch_51">
    <path d="M 755.281098 201.76272 
L 820.716805 201.76272 
L 820.716805 200.8008 
L 755.281098 200.8008 
z
" clip-path="url(#p6bb7f0021b)" style="fill: #00bfff"/>
   </g>
   <g id="patch_52">
    <path d="M 837.075732 201.04128 
L 902.511439 201.04128 
L 902.511439 200.8008 
L 837.075732 200.8008 
z
" clip-path="url(#p6bb7f0021b)" style="fill: #00bfff"/>
   </g>
   <g id="patch_53">
    <path d="M 918.870366 200.92104 
L 984.306073 200.92104 
L 984.306073 200.8008 
L 918.870366 200.8008 
z
" clip-path="url(#p6bb7f0021b)" style="fill: #00bfff"/>
   </g>
   <g id="patch_54">
    <path d="M 1000.665 200.92104 
L 1066.100707 200.92104 
L 1066.100707 200.8008 
L 1000.665 200.8008 
z
" clip-path="url(#p6bb7f0021b)" style="fill: #00bfff"/>
   </g>
   <g id="patch_55">
    <path d="M 1082.459634 321.0408 
L 1147.895341 321.0408 
L 1147.895341 321.0408 
L 1082.459634 321.0408 
z
" clip-path="url(#p6bb7f0021b)" style="fill: #00bfff"/>
   </g>
   <g id="patch_56">
    <path d="M 182.718659 239.03712 
L 248.154366 239.03712 
L 248.154366 200.8008 
L 182.718659 200.8008 
z
" clip-path="url(#p6bb7f0021b)"/>
   </g>
   <g id="patch_57">
    <path d="M 264.513293 211.14144 
L 329.949 211.14144 
L 329.949 200.8008 
L 264.513293 200.8008 
z
" clip-path="url(#p6bb7f0021b)"/>
   </g>
   <g id="patch_58">
    <path d="M 346.307927 204.04728 
L 411.743634 204.04728 
L 411.743634 200.8008 
L 346.307927 200.8008 
z
" clip-path="url(#p6bb7f0021b)"/>
   </g>
   <g id="patch_59">
    <path d="M 428.102561 201.04128 
L 493.538268 201.04128 
L 493.538268 200.8008 
L 428.102561 200.8008 
z
" clip-path="url(#p6bb7f0021b)"/>
   </g>
   <g id="patch_60">
    <path d="M 509.897195 321.0408 
L 575.332902 321.0408 
L 575.332902 321.0408 
L 509.897195 321.0408 
z
" clip-path="url(#p6bb7f0021b)"/>
   </g>
   <g id="patch_61">
    <path d="M 591.691829 321.0408 
L 657.127537 321.0408 
L 657.127537 321.0408 
L 591.691829 321.0408 
z
" clip-path="url(#p6bb7f0021b)"/>
   </g>
   <g id="patch_62">
    <path d="M 673.486463 321.0408 
L 738.922171 321.0408 
L 738.922171 321.0408 
L 673.486463 321.0408 
z
" clip-path="url(#p6bb7f0021b)"/>
   </g>
   <g id="patch_63">
    <path d="M 755.281098 321.0408 
L 820.716805 321.0408 
L 820.716805 321.0408 
L 755.281098 321.0408 
z
" clip-path="url(#p6bb7f0021b)"/>
   </g>
   <g id="patch_64">
    <path d="M 837.075732 321.0408 
L 902.511439 321.0408 
L 902.511439 321.0408 
L 837.075732 321.0408 
z
" clip-path="url(#p6bb7f0021b)"/>
   </g>
   <g id="patch_65">
    <path d="M 918.870366 321.0408 
L 984.306073 321.0408 
L 984.306073 321.0408 
L 918.870366 321.0408 
z
" clip-path="url(#p6bb7f0021b)"/>
   </g>
   <g id="patch_66">
    <path d="M 1000.665 321.0408 
L 1066.100707 321.0408 
L 1066.100707 321.0408 
L 1000.665 321.0408 
z
" clip-path="url(#p6bb7f0021b)"/>
   </g>
   <g id="patch_67">
    <path d="M 1082.459634 321.0408 
L 1147.895341 321.0408 
L 1147.895341 321.0408 
L 1082.459634 321.0408 
z
" clip-path="url(#p6bb7f0021b)"/>
   </g>
   <g id="matplotlib.axis_3">
    <g id="xtick_13">
     <g id="line2d_18">
      <g>
       <use xlink:href="#m0a652506ba" x="215.436512" y="321.0408" style="stroke: #000000; stroke-width: 0.8"/>
      </g>
     </g>
     <g id="text_18">
      <!-- 1 -->
      <g transform="translate(218.195887 334.4033)rotate(-90)scale(0.1 -0.1)">
       <use xlink:href="#DejaVuSans-31"/>
      </g>
     </g>
    </g>
    <g id="xtick_14">
     <g id="line2d_19">
      <g>
       <use xlink:href="#m0a652506ba" x="297.231146" y="321.0408" style="stroke: #000000; stroke-width: 0.8"/>
      </g>
     </g>
     <g id="text_19">
      <!-- 2 -->
      <g transform="translate(299.990521 334.4033)rotate(-90)scale(0.1 -0.1)">
       <use xlink:href="#DejaVuSans-32"/>
      </g>
     </g>
    </g>
    <g id="xtick_15">
     <g id="line2d_20">
      <g>
       <use xlink:href="#m0a652506ba" x="379.02578" y="321.0408" style="stroke: #000000; stroke-width: 0.8"/>
      </g>
     </g>
     <g id="text_20">
      <!-- 3 -->
      <g transform="translate(381.785155 334.4033)rotate(-90)scale(0.1 -0.1)">
       <use xlink:href="#DejaVuSans-33"/>
      </g>
     </g>
    </g>
    <g id="xtick_16">
     <g id="line2d_21">
      <g>
       <use xlink:href="#m0a652506ba" x="460.820415" y="321.0408" style="stroke: #000000; stroke-width: 0.8"/>
      </g>
     </g>
     <g id="text_21">
      <!-- 4 -->
      <g transform="translate(463.57979 334.4033)rotate(-90)scale(0.1 -0.1)">
       <use xlink:href="#DejaVuSans-34"/>
      </g>
     </g>
    </g>
    <g id="xtick_17">
     <g id="line2d_22">
      <g>
       <use xlink:href="#m0a652506ba" x="542.615049" y="321.0408" style="stroke: #000000; stroke-width: 0.8"/>
      </g>
     </g>
     <g id="text_22">
      <!-- 5 -->
      <g transform="translate(545.374424 334.4033)rotate(-90)scale(0.1 -0.1)">
       <use xlink:href="#DejaVuSans-35"/>
      </g>
     </g>
    </g>
    <g id="xtick_18">
     <g id="line2d_23">
      <g>
       <use xlink:href="#m0a652506ba" x="624.409683" y="321.0408" style="stroke: #000000; stroke-width: 0.8"/>
      </g>
     </g>
     <g id="text_23">
      <!-- 6 -->
      <g transform="translate(627.169058 334.4033)rotate(-90)scale(0.1 -0.1)">
       <use xlink:href="#DejaVuSans-36"/>
      </g>
     </g>
    </g>
    <g id="xtick_19">
     <g id="line2d_24">
      <g>
       <use xlink:href="#m0a652506ba" x="706.204317" y="321.0408" style="stroke: #000000; stroke-width: 0.8"/>
      </g>
     </g>
     <g id="text_24">
      <!-- 7 -->
      <g transform="translate(708.963692 334.4033)rotate(-90)scale(0.1 -0.1)">
       <use xlink:href="#DejaVuSans-37"/>
      </g>
     </g>
    </g>
    <g id="xtick_20">
     <g id="line2d_25">
      <g>
       <use xlink:href="#m0a652506ba" x="787.998951" y="321.0408" style="stroke: #000000; stroke-width: 0.8"/>
      </g>
     </g>
     <g id="text_25">
      <!-- 8 -->
      <g transform="translate(790.758326 334.4033)rotate(-90)scale(0.1 -0.1)">
       <use xlink:href="#DejaVuSans-38"/>
      </g>
     </g>
    </g>
    <g id="xtick_21">
     <g id="line2d_26">
      <g>
       <use xlink:href="#m0a652506ba" x="869.793585" y="321.0408" style="stroke: #000000; stroke-width: 0.8"/>
      </g>
     </g>
     <g id="text_26">
      <!-- 9 -->
      <g transform="translate(872.55296 334.4033)rotate(-90)scale(0.1 -0.1)">
       <use xlink:href="#DejaVuSans-39"/>
      </g>
     </g>
    </g>
    <g id="xtick_22">
     <g id="line2d_27">
      <g>
       <use xlink:href="#m0a652506ba" x="951.58822" y="321.0408" style="stroke: #000000; stroke-width: 0.8"/>
      </g>
     </g>
     <g id="text_27">
      <!-- 10 -->
      <g transform="translate(954.347595 340.7658)rotate(-90)scale(0.1 -0.1)">
       <use xlink:href="#DejaVuSans-31"/>
       <use xlink:href="#DejaVuSans-30" x="63.623047"/>
      </g>
     </g>
    </g>
    <g id="xtick_23">
     <g id="line2d_28">
      <g>
       <use xlink:href="#m0a652506ba" x="1033.382854" y="321.0408" style="stroke: #000000; stroke-width: 0.8"/>
      </g>
     </g>
     <g id="text_28">
      <!-- 11 -->
      <g transform="translate(1036.142229 340.7658)rotate(-90)scale(0.1 -0.1)">
       <use xlink:href="#DejaVuSans-31"/>
       <use xlink:href="#DejaVuSans-31" x="63.623047"/>
      </g>
     </g>
    </g>
    <g id="xtick_24">
     <g id="line2d_29">
      <g>
       <use xlink:href="#m0a652506ba" x="1115.177488" y="321.0408" style="stroke: #000000; stroke-width: 0.8"/>
      </g>
     </g>
     <g id="text_29">
      <!-- 12 -->
      <g transform="translate(1117.936863 340.7658)rotate(-90)scale(0.1 -0.1)">
       <use xlink:href="#DejaVuSans-31"/>
       <use xlink:href="#DejaVuSans-32" x="63.623047"/>
      </g>
     </g>
    </g>
   </g>
   <g id="matplotlib.axis_4">
    <g id="ytick_6">
     <g id="line2d_30">
      <g>
       <use xlink:href="#mc07d7d6d33" x="162.27" y="321.0408" style="stroke: #000000; stroke-width: 0.8"/>
      </g>
     </g>
     <g id="text_30">
      <!-- 0 -->
      <g transform="translate(148.9075 324.840019)scale(0.1 -0.1)">
       <use xlink:href="#DejaVuSans-30"/>
      </g>
     </g>
    </g>
    <g id="ytick_7">
     <g id="line2d_31">
      <g>
       <use xlink:href="#mc07d7d6d33" x="162.27" y="296.9928" style="stroke: #000000; stroke-width: 0.8"/>
      </g>
     </g>
     <g id="text_31">
      <!-- 200 -->
      <g transform="translate(136.1825 300.792019)scale(0.1 -0.1)">
       <use xlink:href="#DejaVuSans-32"/>
       <use xlink:href="#DejaVuSans-30" x="63.623047"/>
       <use xlink:href="#DejaVuSans-30" x="127.246094"/>
      </g>
     </g>
    </g>
    <g id="ytick_8">
     <g id="line2d_32">
      <g>
       <use xlink:href="#mc07d7d6d33" x="162.27" y="272.9448" style="stroke: #000000; stroke-width: 0.8"/>
      </g>
     </g>
     <g id="text_32">
      <!-- 400 -->
      <g transform="translate(136.1825 276.744019)scale(0.1 -0.1)">
       <use xlink:href="#DejaVuSans-34"/>
       <use xlink:href="#DejaVuSans-30" x="63.623047"/>
       <use xlink:href="#DejaVuSans-30" x="127.246094"/>
      </g>
     </g>
    </g>
    <g id="ytick_9">
     <g id="line2d_33">
      <g>
       <use xlink:href="#mc07d7d6d33" x="162.27" y="248.8968" style="stroke: #000000; stroke-width: 0.8"/>
      </g>
     </g>
     <g id="text_33">
      <!-- 600 -->
      <g transform="translate(136.1825 252.696019)scale(0.1 -0.1)">
       <use xlink:href="#DejaVuSans-36"/>
       <use xlink:href="#DejaVuSans-30" x="63.623047"/>
       <use xlink:href="#DejaVuSans-30" x="127.246094"/>
      </g>
     </g>
    </g>
    <g id="ytick_10">
     <g id="line2d_34">
      <g>
       <use xlink:href="#mc07d7d6d33" x="162.27" y="224.8488" style="stroke: #000000; stroke-width: 0.8"/>
      </g>
     </g>
     <g id="text_34">
      <!-- 800 -->
      <g transform="translate(136.1825 228.648019)scale(0.1 -0.1)">
       <use xlink:href="#DejaVuSans-38"/>
       <use xlink:href="#DejaVuSans-30" x="63.623047"/>
       <use xlink:href="#DejaVuSans-30" x="127.246094"/>
      </g>
     </g>
    </g>
    <g id="ytick_11">
     <g id="line2d_35">
      <g>
       <use xlink:href="#mc07d7d6d33" x="162.27" y="200.8008" style="stroke: #000000; stroke-width: 0.8"/>
      </g>
     </g>
     <g id="text_35">
      <!-- 1000 -->
      <g transform="translate(129.82 204.600019)scale(0.1 -0.1)">
       <use xlink:href="#DejaVuSans-31"/>
       <use xlink:href="#DejaVuSans-30" x="63.623047"/>
       <use xlink:href="#DejaVuSans-30" x="127.246094"/>
       <use xlink:href="#DejaVuSans-30" x="190.869141"/>
      </g>
     </g>
    </g>
   </g>
   <g id="patch_68">
    <path d="M 162.27 321.0408 
L 162.27 194.7888 
" style="fill: none; stroke: #000000; stroke-width: 0.8; stroke-linejoin: miter; stroke-linecap: square"/>
   </g>
   <g id="patch_69">
    <path d="M 1168.344 321.0408 
L 1168.344 194.7888 
" style="fill: none; stroke: #000000; stroke-width: 0.8; stroke-linejoin: miter; stroke-linecap: square"/>
   </g>
   <g id="patch_70">
    <path d="M 162.27 321.0408 
L 1168.344 321.0408 
" style="fill: none; stroke: #000000; stroke-width: 0.8; stroke-linejoin: miter; stroke-linecap: square"/>
   </g>
   <g id="patch_71">
    <path d="M 162.27 194.7888 
L 1168.344 194.7888 
" style="fill: none; stroke: #000000; stroke-width: 0.8; stroke-linejoin: miter; stroke-linecap: square"/>
   </g>
  </g>
 </g>
 <defs>
  <clipPath id="p763380d442">
   <rect x="162.27" y="43.2864" width="1006.074" height="126.252"/>
  </clipPath>
  <clipPath id="p6bb7f0021b">
   <rect x="162.27" y="194.7888" width="1006.074" height="126.252"/>
  </clipPath>
 </defs>
</svg>
