<?xml version="1.0" encoding="utf-8" standalone="no"?>
<!DOCTYPE svg PUBLIC "-//W3C//DTD SVG 1.1//EN"
  "http://www.w3.org/Graphics/SVG/1.1/DTD/svg11.dtd">
<svg xmlns:xlink="http://www.w3.org/1999/xlink" width="522.13pt" height="166.688531pt" viewBox="0 0 522.13 166.688531" xmlns="http://www.w3.org/2000/svg" version="1.1">
 <metadata>
  <rdf:RDF xmlns:dc="http://purl.org/dc/elements/1.1/" xmlns:cc="http://creativecommons.org/ns#" xmlns:rdf="http://www.w3.org/1999/02/22-rdf-syntax-ns#">
   <cc:Work>
    <dc:type rdf:resource="http://purl.org/dc/dcmitype/StillImage"/>
    <dc:date>2025-09-18T13:50:44.575757</dc:date>
    <dc:format>image/svg+xml</dc:format>
    <dc:creator>
     <cc:Agent>
      <dc:title>Matplotlib v3.10.6, https://matplotlib.org/</dc:title>
     </cc:Agent>
    </dc:creator>
   </cc:Work>
  </rdf:RDF>
 </metadata>
 <defs>
  <style type="text/css">*{stroke-linejoin: round; stroke-linecap: butt}</style>
 </defs>
 <g id="figure_1">
  <g id="patch_1">
   <path d="M 0 166.688531 
L 522.13 166.688531 
L 522.13 0 
L 0 0 
z
" style="fill: #ffffff"/>
  </g>
  <g id="axes_1">
   <g id="patch_2">
    <path d="M 29.47 68.699531 
L 514.93 68.699531 
L 514.93 9.479531 
L 29.47 9.479531 
z
" style="fill: #ffffff"/>
   </g>
   <g id="patch_3">
    <path d="M 33.758516 68.699531 
L 47.481767 68.699531 
L 47.481767 13.921031 
L 33.758516 13.921031 
z
" clip-path="url(#p0a391a59f8)" style="fill: #800000"/>
   </g>
   <g id="patch_4">
    <path d="M 50.91258 68.699531 
L 64.63583 68.699531 
L 64.63583 18.007211 
L 50.91258 18.007211 
z
" clip-path="url(#p0a391a59f8)" style="fill: #800000"/>
   </g>
   <g id="patch_5">
    <path d="M 68.066643 68.699531 
L 81.789894 68.699531 
L 81.789894 21.501191 
L 68.066643 21.501191 
z
" clip-path="url(#p0a391a59f8)" style="fill: #800000"/>
   </g>
   <g id="patch_6">
    <path d="M 85.220707 68.699531 
L 98.943958 68.699531 
L 98.943958 22.626371 
L 85.220707 22.626371 
z
" clip-path="url(#p0a391a59f8)" style="fill: #800000"/>
   </g>
   <g id="patch_7">
    <path d="M 102.37477 68.699531 
L 116.098021 68.699531 
L 116.098021 25.705811 
L 102.37477 25.705811 
z
" clip-path="url(#p0a391a59f8)" style="fill: #800000"/>
   </g>
   <g id="patch_8">
    <path d="M 119.528834 68.699531 
L 133.252085 68.699531 
L 133.252085 27.186311 
L 119.528834 27.186311 
z
" clip-path="url(#p0a391a59f8)" style="fill: #800000"/>
   </g>
   <g id="patch_9">
    <path d="M 136.682898 68.699531 
L 150.406148 68.699531 
L 150.406148 28.844471 
L 136.682898 28.844471 
z
" clip-path="url(#p0a391a59f8)" style="fill: #800000"/>
   </g>
   <g id="patch_10">
    <path d="M 153.836961 68.699531 
L 167.560212 68.699531 
L 167.560212 29.910431 
L 153.836961 29.910431 
z
" clip-path="url(#p0a391a59f8)" style="fill: #800000"/>
   </g>
   <g id="patch_11">
    <path d="M 170.991025 68.699531 
L 184.714276 68.699531 
L 184.714276 32.338451 
L 170.991025 32.338451 
z
" clip-path="url(#p0a391a59f8)" style="fill: #800000"/>
   </g>
   <g id="patch_12">
    <path d="M 188.145088 68.699531 
L 201.868339 68.699531 
L 201.868339 31.509371 
L 188.145088 31.509371 
z
" clip-path="url(#p0a391a59f8)" style="fill: #800000"/>
   </g>
   <g id="patch_13">
    <path d="M 205.299152 68.699531 
L 219.022403 68.699531 
L 219.022403 32.871431 
L 205.299152 32.871431 
z
" clip-path="url(#p0a391a59f8)" style="fill: #800000"/>
   </g>
   <g id="patch_14">
    <path d="M 222.453216 68.699531 
L 236.176466 68.699531 
L 236.176466 34.233491 
L 222.453216 34.233491 
z
" clip-path="url(#p0a391a59f8)" style="fill: #800000"/>
   </g>
   <g id="patch_15">
    <path d="M 239.607279 68.699531 
L 253.33053 68.699531 
L 253.33053 35.181011 
L 239.607279 35.181011 
z
" clip-path="url(#p0a391a59f8)" style="fill: #800000"/>
   </g>
   <g id="patch_16">
    <path d="M 256.761343 68.699531 
L 270.484594 68.699531 
L 270.484594 34.233491 
L 256.761343 34.233491 
z
" clip-path="url(#p0a391a59f8)" style="fill: #800000"/>
   </g>
   <g id="patch_17">
    <path d="M 273.915406 68.699531 
L 287.638657 68.699531 
L 287.638657 36.957611 
L 273.915406 36.957611 
z
" clip-path="url(#p0a391a59f8)" style="fill: #800000"/>
   </g>
   <g id="patch_18">
    <path d="M 291.06947 68.699531 
L 304.792721 68.699531 
L 304.792721 36.483851 
L 291.06947 36.483851 
z
" clip-path="url(#p0a391a59f8)" style="fill: #800000"/>
   </g>
   <g id="patch_19">
    <path d="M 308.223534 68.699531 
L 321.946784 68.699531 
L 321.946784 37.194491 
L 308.223534 37.194491 
z
" clip-path="url(#p0a391a59f8)" style="fill: #800000"/>
   </g>
   <g id="patch_20">
    <path d="M 325.377597 68.699531 
L 339.100848 68.699531 
L 339.100848 37.727471 
L 325.377597 37.727471 
z
" clip-path="url(#p0a391a59f8)" style="fill: #800000"/>
   </g>
   <g id="patch_21">
    <path d="M 342.531661 68.699531 
L 356.254912 68.699531 
L 356.254912 37.253711 
L 342.531661 37.253711 
z
" clip-path="url(#p0a391a59f8)" style="fill: #800000"/>
   </g>
   <g id="patch_22">
    <path d="M 359.685724 68.699531 
L 373.408975 68.699531 
L 373.408975 37.786691 
L 359.685724 37.786691 
z
" clip-path="url(#p0a391a59f8)" style="fill: #800000"/>
   </g>
   <g id="patch_23">
    <path d="M 376.839788 68.699531 
L 390.563039 68.699531 
L 390.563039 38.497331 
L 376.839788 38.497331 
z
" clip-path="url(#p0a391a59f8)" style="fill: #800000"/>
   </g>
   <g id="patch_24">
    <path d="M 393.993852 68.699531 
L 407.717102 68.699531 
L 407.717102 37.135271 
L 393.993852 37.135271 
z
" clip-path="url(#p0a391a59f8)" style="fill: #800000"/>
   </g>
   <g id="patch_25">
    <path d="M 411.147915 68.699531 
L 424.871166 68.699531 
L 424.871166 38.852651 
L 411.147915 38.852651 
z
" clip-path="url(#p0a391a59f8)" style="fill: #800000"/>
   </g>
   <g id="patch_26">
    <path d="M 428.301979 68.699531 
L 442.02523 68.699531 
L 442.02523 37.194491 
L 428.301979 37.194491 
z
" clip-path="url(#p0a391a59f8)" style="fill: #800000"/>
   </g>
   <g id="patch_27">
    <path d="M 445.456042 68.699531 
L 459.179293 68.699531 
L 459.179293 40.747691 
L 445.456042 40.747691 
z
" clip-path="url(#p0a391a59f8)" style="fill: #800000"/>
   </g>
   <g id="patch_28">
    <path d="M 462.610106 68.699531 
L 476.333357 68.699531 
L 476.333357 39.563291 
L 462.610106 39.563291 
z
" clip-path="url(#p0a391a59f8)" style="fill: #800000"/>
   </g>
   <g id="patch_29">
    <path d="M 479.76417 68.699531 
L 493.48742 68.699531 
L 493.48742 38.082791 
L 479.76417 38.082791 
z
" clip-path="url(#p0a391a59f8)" style="fill: #800000"/>
   </g>
   <g id="patch_30">
    <path d="M 496.918233 68.699531 
L 510.641484 68.699531 
L 510.641484 39.089531 
L 496.918233 39.089531 
z
" clip-path="url(#p0a391a59f8)" style="fill: #800000"/>
   </g>
   <g id="matplotlib.axis_1">
    <g id="xtick_1"/>
    <g id="xtick_2"/>
    <g id="xtick_3"/>
    <g id="xtick_4"/>
    <g id="xtick_5"/>
    <g id="xtick_6"/>
    <g id="xtick_7"/>
    <g id="xtick_8"/>
    <g id="xtick_9"/>
    <g id="xtick_10"/>
    <g id="xtick_11"/>
    <g id="xtick_12"/>
    <g id="xtick_13"/>
    <g id="xtick_14"/>
    <g id="xtick_15"/>
    <g id="xtick_16"/>
    <g id="xtick_17"/>
    <g id="xtick_18"/>
    <g id="xtick_19"/>
    <g id="xtick_20"/>
    <g id="xtick_21"/>
    <g id="xtick_22"/>
    <g id="xtick_23"/>
    <g id="xtick_24"/>
    <g id="xtick_25"/>
    <g id="xtick_26"/>
    <g id="xtick_27"/>
    <g id="xtick_28"/>
   </g>
   <g id="matplotlib.axis_2">
    <g id="ytick_1">
     <g id="line2d_1">
      <defs>
       <path id="m815f9f063a" d="M 0 0 
L -3.5 0 
" style="stroke: #000000; stroke-width: 0.8"/>
      </defs>
      <g>
       <use xlink:href="#m815f9f063a" x="29.47" y="68.699531" style="stroke: #000000; stroke-width: 0.8"/>
      </g>
     </g>
     <g id="text_1">
      <!-- 0 -->
      <g transform="translate(18.6525 70.979062) scale(0.06 -0.06)">
       <defs>
        <path id="DejaVuSans-30" d="M 2034 4250 
Q 1547 4250 1301 3770 
Q 1056 3291 1056 2328 
Q 1056 1369 1301 889 
Q 1547 409 2034 409 
Q 2525 409 2770 889 
Q 3016 1369 3016 2328 
Q 3016 3291 2770 3770 
Q 2525 4250 2034 4250 
z
M 2034 4750 
Q 2819 4750 3233 4129 
Q 3647 3509 3647 2328 
Q 3647 1150 3233 529 
Q 2819 -91 2034 -91 
Q 1250 -91 836 529 
Q 422 1150 422 2328 
Q 422 3509 836 4129 
Q 1250 4750 2034 4750 
z
" transform="scale(0.015625)"/>
       </defs>
       <use xlink:href="#DejaVuSans-30"/>
      </g>
     </g>
    </g>
    <g id="ytick_2">
     <g id="line2d_2">
      <g>
       <use xlink:href="#m815f9f063a" x="29.47" y="56.855531" style="stroke: #000000; stroke-width: 0.8"/>
      </g>
     </g>
     <g id="text_2">
      <!-- 200 -->
      <g transform="translate(11.0175 59.135062) scale(0.06 -0.06)">
       <defs>
        <path id="DejaVuSans-32" d="M 1228 531 
L 3431 531 
L 3431 0 
L 469 0 
L 469 531 
Q 828 903 1448 1529 
Q 2069 2156 2228 2338 
Q 2531 2678 2651 2914 
Q 2772 3150 2772 3378 
Q 2772 3750 2511 3984 
Q 2250 4219 1831 4219 
Q 1534 4219 1204 4116 
Q 875 4013 500 3803 
L 500 4441 
Q 881 4594 1212 4672 
Q 1544 4750 1819 4750 
Q 2544 4750 2975 4387 
Q 3406 4025 3406 3419 
Q 3406 3131 3298 2873 
Q 3191 2616 2906 2266 
Q 2828 2175 2409 1742 
Q 1991 1309 1228 531 
z
" transform="scale(0.015625)"/>
       </defs>
       <use xlink:href="#DejaVuSans-32"/>
       <use xlink:href="#DejaVuSans-30" transform="translate(63.623047 0)"/>
       <use xlink:href="#DejaVuSans-30" transform="translate(127.246094 0)"/>
      </g>
     </g>
    </g>
    <g id="ytick_3">
     <g id="line2d_3">
      <g>
       <use xlink:href="#m815f9f063a" x="29.47" y="45.011531" style="stroke: #000000; stroke-width: 0.8"/>
      </g>
     </g>
     <g id="text_3">
      <!-- 400 -->
      <g transform="translate(11.0175 47.291062) scale(0.06 -0.06)">
       <defs>
        <path id="DejaVuSans-34" d="M 2419 4116 
L 825 1625 
L 2419 1625 
L 2419 4116 
z
M 2253 4666 
L 3047 4666 
L 3047 1625 
L 3713 1625 
L 3713 1100 
L 3047 1100 
L 3047 0 
L 2419 0 
L 2419 1100 
L 313 1100 
L 313 1709 
L 2253 4666 
z
" transform="scale(0.015625)"/>
       </defs>
       <use xlink:href="#DejaVuSans-34"/>
       <use xlink:href="#DejaVuSans-30" transform="translate(63.623047 0)"/>
       <use xlink:href="#DejaVuSans-30" transform="translate(127.246094 0)"/>
      </g>
     </g>
    </g>
    <g id="ytick_4">
     <g id="line2d_4">
      <g>
       <use xlink:href="#m815f9f063a" x="29.47" y="33.167531" style="stroke: #000000; stroke-width: 0.8"/>
      </g>
     </g>
     <g id="text_4">
      <!-- 600 -->
      <g transform="translate(11.0175 35.447062) scale(0.06 -0.06)">
       <defs>
        <path id="DejaVuSans-36" d="M 2113 2584 
Q 1688 2584 1439 2293 
Q 1191 2003 1191 1497 
Q 1191 994 1439 701 
Q 1688 409 2113 409 
Q 2538 409 2786 701 
Q 3034 994 3034 1497 
Q 3034 2003 2786 2293 
Q 2538 2584 2113 2584 
z
M 3366 4563 
L 3366 3988 
Q 3128 4100 2886 4159 
Q 2644 4219 2406 4219 
Q 1781 4219 1451 3797 
Q 1122 3375 1075 2522 
Q 1259 2794 1537 2939 
Q 1816 3084 2150 3084 
Q 2853 3084 3261 2657 
Q 3669 2231 3669 1497 
Q 3669 778 3244 343 
Q 2819 -91 2113 -91 
Q 1303 -91 875 529 
Q 447 1150 447 2328 
Q 447 3434 972 4092 
Q 1497 4750 2381 4750 
Q 2619 4750 2861 4703 
Q 3103 4656 3366 4563 
z
" transform="scale(0.015625)"/>
       </defs>
       <use xlink:href="#DejaVuSans-36"/>
       <use xlink:href="#DejaVuSans-30" transform="translate(63.623047 0)"/>
       <use xlink:href="#DejaVuSans-30" transform="translate(127.246094 0)"/>
      </g>
     </g>
    </g>
    <g id="ytick_5">
     <g id="line2d_5">
      <g>
       <use xlink:href="#m815f9f063a" x="29.47" y="21.323531" style="stroke: #000000; stroke-width: 0.8"/>
      </g>
     </g>
     <g id="text_5">
      <!-- 800 -->
      <g transform="translate(11.0175 23.603062) scale(0.06 -0.06)">
       <defs>
        <path id="DejaVuSans-38" d="M 2034 2216 
Q 1584 2216 1326 1975 
Q 1069 1734 1069 1313 
Q 1069 891 1326 650 
Q 1584 409 2034 409 
Q 2484 409 2743 651 
Q 3003 894 3003 1313 
Q 3003 1734 2745 1975 
Q 2488 2216 2034 2216 
z
M 1403 2484 
Q 997 2584 770 2862 
Q 544 3141 544 3541 
Q 544 4100 942 4425 
Q 1341 4750 2034 4750 
Q 2731 4750 3128 4425 
Q 3525 4100 3525 3541 
Q 3525 3141 3298 2862 
Q 3072 2584 2669 2484 
Q 3125 2378 3379 2068 
Q 3634 1759 3634 1313 
Q 3634 634 3220 271 
Q 2806 -91 2034 -91 
Q 1263 -91 848 271 
Q 434 634 434 1313 
Q 434 1759 690 2068 
Q 947 2378 1403 2484 
z
M 1172 3481 
Q 1172 3119 1398 2916 
Q 1625 2713 2034 2713 
Q 2441 2713 2670 2916 
Q 2900 3119 2900 3481 
Q 2900 3844 2670 4047 
Q 2441 4250 2034 4250 
Q 1625 4250 1398 4047 
Q 1172 3844 1172 3481 
z
" transform="scale(0.015625)"/>
       </defs>
       <use xlink:href="#DejaVuSans-38"/>
       <use xlink:href="#DejaVuSans-30" transform="translate(63.623047 0)"/>
       <use xlink:href="#DejaVuSans-30" transform="translate(127.246094 0)"/>
      </g>
     </g>
    </g>
    <g id="ytick_6">
     <g id="line2d_6">
      <g>
       <use xlink:href="#m815f9f063a" x="29.47" y="9.479531" style="stroke: #000000; stroke-width: 0.8"/>
      </g>
     </g>
     <g id="text_6">
      <!-- 1000 -->
      <g transform="translate(7.2 11.759062) scale(0.06 -0.06)">
       <defs>
        <path id="DejaVuSans-31" d="M 794 531 
L 1825 531 
L 1825 4091 
L 703 3866 
L 703 4441 
L 1819 4666 
L 2450 4666 
L 2450 531 
L 3481 531 
L 3481 0 
L 794 0 
L 794 531 
z
" transform="scale(0.015625)"/>
       </defs>
       <use xlink:href="#DejaVuSans-31"/>
       <use xlink:href="#DejaVuSans-30" transform="translate(63.623047 0)"/>
       <use xlink:href="#DejaVuSans-30" transform="translate(127.246094 0)"/>
       <use xlink:href="#DejaVuSans-30" transform="translate(190.869141 0)"/>
      </g>
     </g>
    </g>
   </g>
   <g id="patch_31">
    <path d="M 29.47 68.699531 
L 29.47 9.479531 
" style="fill: none; stroke: #000000; stroke-width: 0.8; stroke-linejoin: miter; stroke-linecap: square"/>
   </g>
   <g id="patch_32">
    <path d="M 514.93 68.699531 
L 514.93 9.479531 
" style="fill: none; stroke: #000000; stroke-width: 0.8; stroke-linejoin: miter; stroke-linecap: square"/>
   </g>
   <g id="patch_33">
    <path d="M 29.47 68.699531 
L 514.93 68.699531 
" style="fill: none; stroke: #000000; stroke-width: 0.8; stroke-linejoin: miter; stroke-linecap: square"/>
   </g>
   <g id="patch_34">
    <path d="M 29.47 9.479531 
L 514.93 9.479531 
" style="fill: none; stroke: #000000; stroke-width: 0.8; stroke-linejoin: miter; stroke-linecap: square"/>
   </g>
  </g>
  <g id="axes_2">
   <g id="patch_35">
    <path d="M 29.47 139.763531 
L 514.93 139.763531 
L 514.93 80.543531 
L 29.47 80.543531 
z
" style="fill: #ffffff"/>
   </g>
   <g id="patch_36">
    <path d="M 33.758516 139.763531 
L 47.481767 139.763531 
L 47.481767 135.322031 
L 33.758516 135.322031 
z
" clip-path="url(#peaac14b549)" style="fill: #8a2be2"/>
   </g>
   <g id="patch_37">
    <path d="M 50.91258 139.763531 
L 64.63583 139.763531 
L 64.63583 131.235851 
L 50.91258 131.235851 
z
" clip-path="url(#peaac14b549)" style="fill: #8a2be2"/>
   </g>
   <g id="patch_38">
    <path d="M 68.066643 139.763531 
L 81.789894 139.763531 
L 81.789894 127.741871 
L 68.066643 127.741871 
z
" clip-path="url(#peaac14b549)" style="fill: #8a2be2"/>
   </g>
   <g id="patch_39">
    <path d="M 85.220707 139.763531 
L 98.943958 139.763531 
L 98.943958 126.616691 
L 85.220707 126.616691 
z
" clip-path="url(#peaac14b549)" style="fill: #8a2be2"/>
   </g>
   <g id="patch_40">
    <path d="M 102.37477 139.763531 
L 116.098021 139.763531 
L 116.098021 123.537251 
L 102.37477 123.537251 
z
" clip-path="url(#peaac14b549)" style="fill: #8a2be2"/>
   </g>
   <g id="patch_41">
    <path d="M 119.528834 139.763531 
L 133.252085 139.763531 
L 133.252085 122.056751 
L 119.528834 122.056751 
z
" clip-path="url(#peaac14b549)" style="fill: #8a2be2"/>
   </g>
   <g id="patch_42">
    <path d="M 136.682898 139.763531 
L 150.406148 139.763531 
L 150.406148 120.398591 
L 136.682898 120.398591 
z
" clip-path="url(#peaac14b549)" style="fill: #8a2be2"/>
   </g>
   <g id="patch_43">
    <path d="M 153.836961 139.763531 
L 167.560212 139.763531 
L 167.560212 119.332631 
L 153.836961 119.332631 
z
" clip-path="url(#peaac14b549)" style="fill: #8a2be2"/>
   </g>
   <g id="patch_44">
    <path d="M 170.991025 139.763531 
L 184.714276 139.763531 
L 184.714276 116.904611 
L 170.991025 116.904611 
z
" clip-path="url(#peaac14b549)" style="fill: #8a2be2"/>
   </g>
   <g id="patch_45">
    <path d="M 188.145088 139.763531 
L 201.868339 139.763531 
L 201.868339 117.733691 
L 188.145088 117.733691 
z
" clip-path="url(#peaac14b549)" style="fill: #8a2be2"/>
   </g>
   <g id="patch_46">
    <path d="M 205.299152 139.763531 
L 219.022403 139.763531 
L 219.022403 116.371631 
L 205.299152 116.371631 
z
" clip-path="url(#peaac14b549)" style="fill: #8a2be2"/>
   </g>
   <g id="patch_47">
    <path d="M 222.453216 139.763531 
L 236.176466 139.763531 
L 236.176466 115.009571 
L 222.453216 115.009571 
z
" clip-path="url(#peaac14b549)" style="fill: #8a2be2"/>
   </g>
   <g id="patch_48">
    <path d="M 239.607279 139.763531 
L 253.33053 139.763531 
L 253.33053 114.062051 
L 239.607279 114.062051 
z
" clip-path="url(#peaac14b549)" style="fill: #8a2be2"/>
   </g>
   <g id="patch_49">
    <path d="M 256.761343 139.763531 
L 270.484594 139.763531 
L 270.484594 115.009571 
L 256.761343 115.009571 
z
" clip-path="url(#peaac14b549)" style="fill: #8a2be2"/>
   </g>
   <g id="patch_50">
    <path d="M 273.915406 139.763531 
L 287.638657 139.763531 
L 287.638657 112.285451 
L 273.915406 112.285451 
z
" clip-path="url(#peaac14b549)" style="fill: #8a2be2"/>
   </g>
   <g id="patch_51">
    <path d="M 291.06947 139.763531 
L 304.792721 139.763531 
L 304.792721 112.759211 
L 291.06947 112.759211 
z
" clip-path="url(#peaac14b549)" style="fill: #8a2be2"/>
   </g>
   <g id="patch_52">
    <path d="M 308.223534 139.763531 
L 321.946784 139.763531 
L 321.946784 112.048571 
L 308.223534 112.048571 
z
" clip-path="url(#peaac14b549)" style="fill: #8a2be2"/>
   </g>
   <g id="patch_53">
    <path d="M 325.377597 139.763531 
L 339.100848 139.763531 
L 339.100848 111.515591 
L 325.377597 111.515591 
z
" clip-path="url(#peaac14b549)" style="fill: #8a2be2"/>
   </g>
   <g id="patch_54">
    <path d="M 342.531661 139.763531 
L 356.254912 139.763531 
L 356.254912 111.989351 
L 342.531661 111.989351 
z
" clip-path="url(#peaac14b549)" style="fill: #8a2be2"/>
   </g>
   <g id="patch_55">
    <path d="M 359.685724 139.763531 
L 373.408975 139.763531 
L 373.408975 111.456371 
L 359.685724 111.456371 
z
" clip-path="url(#peaac14b549)" style="fill: #8a2be2"/>
   </g>
   <g id="patch_56">
    <path d="M 376.839788 139.763531 
L 390.563039 139.763531 
L 390.563039 110.745731 
L 376.839788 110.745731 
z
" clip-path="url(#peaac14b549)" style="fill: #8a2be2"/>
   </g>
   <g id="patch_57">
    <path d="M 393.993852 139.763531 
L 407.717102 139.763531 
L 407.717102 112.107791 
L 393.993852 112.107791 
z
" clip-path="url(#peaac14b549)" style="fill: #8a2be2"/>
   </g>
   <g id="patch_58">
    <path d="M 411.147915 139.763531 
L 424.871166 139.763531 
L 424.871166 110.390411 
L 411.147915 110.390411 
z
" clip-path="url(#peaac14b549)" style="fill: #8a2be2"/>
   </g>
   <g id="patch_59">
    <path d="M 428.301979 139.763531 
L 442.02523 139.763531 
L 442.02523 112.048571 
L 428.301979 112.048571 
z
" clip-path="url(#peaac14b549)" style="fill: #8a2be2"/>
   </g>
   <g id="patch_60">
    <path d="M 445.456042 139.763531 
L 459.179293 139.763531 
L 459.179293 108.495371 
L 445.456042 108.495371 
z
" clip-path="url(#peaac14b549)" style="fill: #8a2be2"/>
   </g>
   <g id="patch_61">
    <path d="M 462.610106 139.763531 
L 476.333357 139.763531 
L 476.333357 109.679771 
L 462.610106 109.679771 
z
" clip-path="url(#peaac14b549)" style="fill: #8a2be2"/>
   </g>
   <g id="patch_62">
    <path d="M 479.76417 139.763531 
L 493.48742 139.763531 
L 493.48742 111.160271 
L 479.76417 111.160271 
z
" clip-path="url(#peaac14b549)" style="fill: #8a2be2"/>
   </g>
   <g id="patch_63">
    <path d="M 496.918233 139.763531 
L 510.641484 139.763531 
L 510.641484 110.153531 
L 496.918233 110.153531 
z
" clip-path="url(#peaac14b549)" style="fill: #8a2be2"/>
   </g>
   <g id="patch_64">
    <path d="M 33.758516 135.322031 
L 47.481767 135.322031 
L 47.481767 131.176631 
L 33.758516 131.176631 
z
" clip-path="url(#peaac14b549)" style="fill: #1e90ff"/>
   </g>
   <g id="patch_65">
    <path d="M 50.91258 131.235851 
L 64.63583 131.235851 
L 64.63583 125.254631 
L 50.91258 125.254631 
z
" clip-path="url(#peaac14b549)" style="fill: #1e90ff"/>
   </g>
   <g id="patch_66">
    <path d="M 68.066643 127.741871 
L 81.789894 127.741871 
L 81.789894 117.319151 
L 68.066643 117.319151 
z
" clip-path="url(#peaac14b549)" style="fill: #1e90ff"/>
   </g>
   <g id="patch_67">
    <path d="M 85.220707 126.616691 
L 98.943958 126.616691 
L 98.943958 113.588291 
L 85.220707 113.588291 
z
" clip-path="url(#peaac14b549)" style="fill: #1e90ff"/>
   </g>
   <g id="patch_68">
    <path d="M 102.37477 123.537251 
L 116.098021 123.537251 
L 116.098021 107.488631 
L 102.37477 107.488631 
z
" clip-path="url(#peaac14b549)" style="fill: #1e90ff"/>
   </g>
   <g id="patch_69">
    <path d="M 119.528834 122.056751 
L 133.252085 122.056751 
L 133.252085 105.415931 
L 119.528834 105.415931 
z
" clip-path="url(#peaac14b549)" style="fill: #1e90ff"/>
   </g>
   <g id="patch_70">
    <path d="M 136.682898 120.398591 
L 150.406148 120.398591 
L 150.406148 101.685071 
L 136.682898 101.685071 
z
" clip-path="url(#peaac14b549)" style="fill: #1e90ff"/>
   </g>
   <g id="patch_71">
    <path d="M 153.836961 119.332631 
L 167.560212 119.332631 
L 167.560212 97.835771 
L 153.836961 97.835771 
z
" clip-path="url(#peaac14b549)" style="fill: #1e90ff"/>
   </g>
   <g id="patch_72">
    <path d="M 170.991025 116.904611 
L 184.714276 116.904611 
L 184.714276 94.519451 
L 170.991025 94.519451 
z
" clip-path="url(#peaac14b549)" style="fill: #1e90ff"/>
   </g>
   <g id="patch_73">
    <path d="M 188.145088 117.733691 
L 201.868339 117.733691 
L 201.868339 92.979731 
L 188.145088 92.979731 
z
" clip-path="url(#peaac14b549)" style="fill: #1e90ff"/>
   </g>
   <g id="patch_74">
    <path d="M 205.299152 116.371631 
L 219.022403 116.371631 
L 219.022403 90.966251 
L 205.299152 90.966251 
z
" clip-path="url(#peaac14b549)" style="fill: #1e90ff"/>
   </g>
   <g id="patch_75">
    <path d="M 222.453216 115.009571 
L 236.176466 115.009571 
L 236.176466 89.011991 
L 222.453216 89.011991 
z
" clip-path="url(#peaac14b549)" style="fill: #1e90ff"/>
   </g>
   <g id="patch_76">
    <path d="M 239.607279 114.062051 
L 253.33053 114.062051 
L 253.33053 88.182911 
L 239.607279 88.182911 
z
" clip-path="url(#peaac14b549)" style="fill: #1e90ff"/>
   </g>
   <g id="patch_77">
    <path d="M 256.761343 115.009571 
L 270.484594 115.009571 
L 270.484594 87.116951 
L 256.761343 87.116951 
z
" clip-path="url(#peaac14b549)" style="fill: #1e90ff"/>
   </g>
   <g id="patch_78">
    <path d="M 273.915406 112.285451 
L 287.638657 112.285451 
L 287.638657 85.695671 
L 273.915406 85.695671 
z
" clip-path="url(#peaac14b549)" style="fill: #1e90ff"/>
   </g>
   <g id="patch_79">
    <path d="M 291.06947 112.759211 
L 304.792721 112.759211 
L 304.792721 85.340351 
L 291.06947 85.340351 
z
" clip-path="url(#peaac14b549)" style="fill: #1e90ff"/>
   </g>
   <g id="patch_80">
    <path d="M 308.223534 112.048571 
L 321.946784 112.048571 
L 321.946784 84.037511 
L 308.223534 84.037511 
z
" clip-path="url(#peaac14b549)" style="fill: #1e90ff"/>
   </g>
   <g id="patch_81">
    <path d="M 325.377597 111.515591 
L 339.100848 111.515591 
L 339.100848 83.800631 
L 325.377597 83.800631 
z
" clip-path="url(#peaac14b549)" style="fill: #1e90ff"/>
   </g>
   <g id="patch_82">
    <path d="M 342.531661 111.989351 
L 356.254912 111.989351 
L 356.254912 82.438571 
L 342.531661 82.438571 
z
" clip-path="url(#peaac14b549)" style="fill: #1e90ff"/>
   </g>
   <g id="patch_83">
    <path d="M 359.685724 111.456371 
L 373.408975 111.456371 
L 373.408975 82.260911 
L 359.685724 82.260911 
z
" clip-path="url(#peaac14b549)" style="fill: #1e90ff"/>
   </g>
   <g id="patch_84">
    <path d="M 376.839788 110.745731 
L 390.563039 110.745731 
L 390.563039 82.142471 
L 376.839788 82.142471 
z
" clip-path="url(#peaac14b549)" style="fill: #1e90ff"/>
   </g>
   <g id="patch_85">
    <path d="M 393.993852 112.107791 
L 407.717102 112.107791 
L 407.717102 81.846371 
L 393.993852 81.846371 
z
" clip-path="url(#peaac14b549)" style="fill: #1e90ff"/>
   </g>
   <g id="patch_86">
    <path d="M 411.147915 110.390411 
L 424.871166 110.390411 
L 424.871166 81.550271 
L 411.147915 81.550271 
z
" clip-path="url(#peaac14b549)" style="fill: #1e90ff"/>
   </g>
   <g id="patch_87">
    <path d="M 428.301979 112.048571 
L 442.02523 112.048571 
L 442.02523 81.372611 
L 428.301979 81.372611 
z
" clip-path="url(#peaac14b549)" style="fill: #1e90ff"/>
   </g>
   <g id="patch_88">
    <path d="M 445.456042 108.495371 
L 459.179293 108.495371 
L 459.179293 81.550271 
L 445.456042 81.550271 
z
" clip-path="url(#peaac14b549)" style="fill: #1e90ff"/>
   </g>
   <g id="patch_89">
    <path d="M 462.610106 109.679771 
L 476.333357 109.679771 
L 476.333357 81.254171 
L 462.610106 81.254171 
z
" clip-path="url(#peaac14b549)" style="fill: #1e90ff"/>
   </g>
   <g id="patch_90">
    <path d="M 479.76417 111.160271 
L 493.48742 111.160271 
L 493.48742 81.372611 
L 479.76417 81.372611 
z
" clip-path="url(#peaac14b549)" style="fill: #1e90ff"/>
   </g>
   <g id="patch_91">
    <path d="M 496.918233 110.153531 
L 510.641484 110.153531 
L 510.641484 80.898851 
L 496.918233 80.898851 
z
" clip-path="url(#peaac14b549)" style="fill: #1e90ff"/>
   </g>
   <g id="patch_92">
    <path d="M 33.758516 131.176631 
L 47.481767 131.176631 
L 47.481767 130.880531 
L 33.758516 130.880531 
z
" clip-path="url(#peaac14b549)" style="fill: #00bfff"/>
   </g>
   <g id="patch_93">
    <path d="M 50.91258 125.254631 
L 64.63583 125.254631 
L 64.63583 124.780871 
L 50.91258 124.780871 
z
" clip-path="url(#peaac14b549)" style="fill: #00bfff"/>
   </g>
   <g id="patch_94">
    <path d="M 68.066643 117.319151 
L 81.789894 117.319151 
L 81.789894 116.963831 
L 68.066643 116.963831 
z
" clip-path="url(#peaac14b549)" style="fill: #00bfff"/>
   </g>
   <g id="patch_95">
    <path d="M 85.220707 113.588291 
L 98.943958 113.588291 
L 98.943958 112.759211 
L 85.220707 112.759211 
z
" clip-path="url(#peaac14b549)" style="fill: #00bfff"/>
   </g>
   <g id="patch_96">
    <path d="M 102.37477 107.488631 
L 116.098021 107.488631 
L 116.098021 106.896431 
L 102.37477 106.896431 
z
" clip-path="url(#peaac14b549)" style="fill: #00bfff"/>
   </g>
   <g id="patch_97">
    <path d="M 119.528834 105.415931 
L 133.252085 105.415931 
L 133.252085 104.349971 
L 119.528834 104.349971 
z
" clip-path="url(#peaac14b549)" style="fill: #00bfff"/>
   </g>
   <g id="patch_98">
    <path d="M 136.682898 101.685071 
L 150.406148 101.685071 
L 150.406148 100.855991 
L 136.682898 100.855991 
z
" clip-path="url(#peaac14b549)" style="fill: #00bfff"/>
   </g>
   <g id="patch_99">
    <path d="M 153.836961 97.835771 
L 167.560212 97.835771 
L 167.560212 96.592151 
L 153.836961 96.592151 
z
" clip-path="url(#peaac14b549)" style="fill: #00bfff"/>
   </g>
   <g id="patch_100">
    <path d="M 170.991025 94.519451 
L 184.714276 94.519451 
L 184.714276 93.631151 
L 170.991025 93.631151 
z
" clip-path="url(#peaac14b549)" style="fill: #00bfff"/>
   </g>
   <g id="patch_101">
    <path d="M 188.145088 92.979731 
L 201.868339 92.979731 
L 201.868339 91.854551 
L 188.145088 91.854551 
z
" clip-path="url(#peaac14b549)" style="fill: #00bfff"/>
   </g>
   <g id="patch_102">
    <path d="M 205.299152 90.966251 
L 219.022403 90.966251 
L 219.022403 90.196391 
L 205.299152 90.196391 
z
" clip-path="url(#peaac14b549)" style="fill: #00bfff"/>
   </g>
   <g id="patch_103">
    <path d="M 222.453216 89.011991 
L 236.176466 89.011991 
L 236.176466 88.064471 
L 222.453216 88.064471 
z
" clip-path="url(#peaac14b549)" style="fill: #00bfff"/>
   </g>
   <g id="patch_104">
    <path d="M 239.607279 88.182911 
L 253.33053 88.182911 
L 253.33053 87.294611 
L 239.607279 87.294611 
z
" clip-path="url(#peaac14b549)" style="fill: #00bfff"/>
   </g>
   <g id="patch_105">
    <path d="M 256.761343 87.116951 
L 270.484594 87.116951 
L 270.484594 86.228651 
L 256.761343 86.228651 
z
" clip-path="url(#peaac14b549)" style="fill: #00bfff"/>
   </g>
   <g id="patch_106">
    <path d="M 273.915406 85.695671 
L 287.638657 85.695671 
L 287.638657 84.748151 
L 273.915406 84.748151 
z
" clip-path="url(#peaac14b549)" style="fill: #00bfff"/>
   </g>
   <g id="patch_107">
    <path d="M 291.06947 85.340351 
L 304.792721 85.340351 
L 304.792721 83.741411 
L 291.06947 83.741411 
z
" clip-path="url(#peaac14b549)" style="fill: #00bfff"/>
   </g>
   <g id="patch_108">
    <path d="M 308.223534 84.037511 
L 321.946784 84.037511 
L 321.946784 83.089991 
L 308.223534 83.089991 
z
" clip-path="url(#peaac14b549)" style="fill: #00bfff"/>
   </g>
   <g id="patch_109">
    <path d="M 325.377597 83.800631 
L 339.100848 83.800631 
L 339.100848 82.734671 
L 325.377597 82.734671 
z
" clip-path="url(#peaac14b549)" style="fill: #00bfff"/>
   </g>
   <g id="patch_110">
    <path d="M 342.531661 82.438571 
L 356.254912 82.438571 
L 356.254912 81.787151 
L 342.531661 81.787151 
z
" clip-path="url(#peaac14b549)" style="fill: #00bfff"/>
   </g>
   <g id="patch_111">
    <path d="M 359.685724 82.260911 
L 373.408975 82.260911 
L 373.408975 81.846371 
L 359.685724 81.846371 
z
" clip-path="url(#peaac14b549)" style="fill: #00bfff"/>
   </g>
   <g id="patch_112">
    <path d="M 376.839788 82.142471 
L 390.563039 82.142471 
L 390.563039 81.668711 
L 376.839788 81.668711 
z
" clip-path="url(#peaac14b549)" style="fill: #00bfff"/>
   </g>
   <g id="patch_113">
    <path d="M 393.993852 81.846371 
L 407.717102 81.846371 
L 407.717102 81.313391 
L 393.993852 81.313391 
z
" clip-path="url(#peaac14b549)" style="fill: #00bfff"/>
   </g>
   <g id="patch_114">
    <path d="M 411.147915 81.550271 
L 424.871166 81.550271 
L 424.871166 80.839631 
L 411.147915 80.839631 
z
" clip-path="url(#peaac14b549)" style="fill: #00bfff"/>
   </g>
   <g id="patch_115">
    <path d="M 428.301979 81.372611 
L 442.02523 81.372611 
L 442.02523 80.958071 
L 428.301979 80.958071 
z
" clip-path="url(#peaac14b549)" style="fill: #00bfff"/>
   </g>
   <g id="patch_116">
    <path d="M 445.456042 81.550271 
L 459.179293 81.550271 
L 459.179293 80.780411 
L 445.456042 80.780411 
z
" clip-path="url(#peaac14b549)" style="fill: #00bfff"/>
   </g>
   <g id="patch_117">
    <path d="M 462.610106 81.254171 
L 476.333357 81.254171 
L 476.333357 80.780411 
L 462.610106 80.780411 
z
" clip-path="url(#peaac14b549)" style="fill: #00bfff"/>
   </g>
   <g id="patch_118">
    <path d="M 479.76417 81.372611 
L 493.48742 81.372611 
L 493.48742 80.602751 
L 479.76417 80.602751 
z
" clip-path="url(#peaac14b549)" style="fill: #00bfff"/>
   </g>
   <g id="patch_119">
    <path d="M 496.918233 80.898851 
L 510.641484 80.898851 
L 510.641484 80.543531 
L 496.918233 80.543531 
z
" clip-path="url(#peaac14b549)" style="fill: #00bfff"/>
   </g>
   <g id="patch_120">
    <path d="M 33.758516 130.880531 
L 47.481767 130.880531 
L 47.481767 80.543531 
L 33.758516 80.543531 
z
" clip-path="url(#peaac14b549)"/>
   </g>
   <g id="patch_121">
    <path d="M 50.91258 124.780871 
L 64.63583 124.780871 
L 64.63583 80.543531 
L 50.91258 80.543531 
z
" clip-path="url(#peaac14b549)"/>
   </g>
   <g id="patch_122">
    <path d="M 68.066643 116.963831 
L 81.789894 116.963831 
L 81.789894 80.543531 
L 68.066643 80.543531 
z
" clip-path="url(#peaac14b549)"/>
   </g>
   <g id="patch_123">
    <path d="M 85.220707 112.759211 
L 98.943958 112.759211 
L 98.943958 80.543531 
L 85.220707 80.543531 
z
" clip-path="url(#peaac14b549)"/>
   </g>
   <g id="patch_124">
    <path d="M 102.37477 106.896431 
L 116.098021 106.896431 
L 116.098021 80.543531 
L 102.37477 80.543531 
z
" clip-path="url(#peaac14b549)"/>
   </g>
   <g id="patch_125">
    <path d="M 119.528834 104.349971 
L 133.252085 104.349971 
L 133.252085 80.543531 
L 119.528834 80.543531 
z
" clip-path="url(#peaac14b549)"/>
   </g>
   <g id="patch_126">
    <path d="M 136.682898 100.855991 
L 150.406148 100.855991 
L 150.406148 80.543531 
L 136.682898 80.543531 
z
" clip-path="url(#peaac14b549)"/>
   </g>
   <g id="patch_127">
    <path d="M 153.836961 96.592151 
L 167.560212 96.592151 
L 167.560212 80.543531 
L 153.836961 80.543531 
z
" clip-path="url(#peaac14b549)"/>
   </g>
   <g id="patch_128">
    <path d="M 170.991025 93.631151 
L 184.714276 93.631151 
L 184.714276 80.543531 
L 170.991025 80.543531 
z
" clip-path="url(#peaac14b549)"/>
   </g>
   <g id="patch_129">
    <path d="M 188.145088 91.854551 
L 201.868339 91.854551 
L 201.868339 80.543531 
L 188.145088 80.543531 
z
" clip-path="url(#peaac14b549)"/>
   </g>
   <g id="patch_130">
    <path d="M 205.299152 90.196391 
L 219.022403 90.196391 
L 219.022403 80.543531 
L 205.299152 80.543531 
z
" clip-path="url(#peaac14b549)"/>
   </g>
   <g id="patch_131">
    <path d="M 222.453216 88.064471 
L 236.176466 88.064471 
L 236.176466 80.543531 
L 222.453216 80.543531 
z
" clip-path="url(#peaac14b549)"/>
   </g>
   <g id="patch_132">
    <path d="M 239.607279 87.294611 
L 253.33053 87.294611 
L 253.33053 80.543531 
L 239.607279 80.543531 
z
" clip-path="url(#peaac14b549)"/>
   </g>
   <g id="patch_133">
    <path d="M 256.761343 86.228651 
L 270.484594 86.228651 
L 270.484594 80.543531 
L 256.761343 80.543531 
z
" clip-path="url(#peaac14b549)"/>
   </g>
   <g id="patch_134">
    <path d="M 273.915406 84.748151 
L 287.638657 84.748151 
L 287.638657 80.543531 
L 273.915406 80.543531 
z
" clip-path="url(#peaac14b549)"/>
   </g>
   <g id="patch_135">
    <path d="M 291.06947 83.741411 
L 304.792721 83.741411 
L 304.792721 80.543531 
L 291.06947 80.543531 
z
" clip-path="url(#peaac14b549)"/>
   </g>
   <g id="patch_136">
    <path d="M 308.223534 83.089991 
L 321.946784 83.089991 
L 321.946784 80.543531 
L 308.223534 80.543531 
z
" clip-path="url(#peaac14b549)"/>
   </g>
   <g id="patch_137">
    <path d="M 325.377597 82.734671 
L 339.100848 82.734671 
L 339.100848 80.543531 
L 325.377597 80.543531 
z
" clip-path="url(#peaac14b549)"/>
   </g>
   <g id="patch_138">
    <path d="M 342.531661 81.787151 
L 356.254912 81.787151 
L 356.254912 80.543531 
L 342.531661 80.543531 
z
" clip-path="url(#peaac14b549)"/>
   </g>
   <g id="patch_139">
    <path d="M 359.685724 81.846371 
L 373.408975 81.846371 
L 373.408975 80.543531 
L 359.685724 80.543531 
z
" clip-path="url(#peaac14b549)"/>
   </g>
   <g id="patch_140">
    <path d="M 376.839788 81.668711 
L 390.563039 81.668711 
L 390.563039 80.543531 
L 376.839788 80.543531 
z
" clip-path="url(#peaac14b549)"/>
   </g>
   <g id="patch_141">
    <path d="M 393.993852 81.313391 
L 407.717102 81.313391 
L 407.717102 80.543531 
L 393.993852 80.543531 
z
" clip-path="url(#peaac14b549)"/>
   </g>
   <g id="patch_142">
    <path d="M 411.147915 80.839631 
L 424.871166 80.839631 
L 424.871166 80.543531 
L 411.147915 80.543531 
z
" clip-path="url(#peaac14b549)"/>
   </g>
   <g id="patch_143">
    <path d="M 428.301979 80.958071 
L 442.02523 80.958071 
L 442.02523 80.543531 
L 428.301979 80.543531 
z
" clip-path="url(#peaac14b549)"/>
   </g>
   <g id="patch_144">
    <path d="M 445.456042 80.780411 
L 459.179293 80.780411 
L 459.179293 80.543531 
L 445.456042 80.543531 
z
" clip-path="url(#peaac14b549)"/>
   </g>
   <g id="patch_145">
    <path d="M 462.610106 80.780411 
L 476.333357 80.780411 
L 476.333357 80.543531 
L 462.610106 80.543531 
z
" clip-path="url(#peaac14b549)"/>
   </g>
   <g id="patch_146">
    <path d="M 479.76417 80.602751 
L 493.48742 80.602751 
L 493.48742 80.543531 
L 479.76417 80.543531 
z
" clip-path="url(#peaac14b549)"/>
   </g>
   <g id="patch_147">
    <path d="M 496.918233 139.763531 
L 510.641484 139.763531 
L 510.641484 139.763531 
L 496.918233 139.763531 
z
" clip-path="url(#peaac14b549)"/>
   </g>
   <g id="matplotlib.axis_3">
    <g id="xtick_29">
     <g id="line2d_7">
      <defs>
       <path id="m43372039ca" d="M 0 0 
L 0 3.5 
" style="stroke: #000000; stroke-width: 0.8"/>
      </defs>
      <g>
       <use xlink:href="#m43372039ca" x="40.620141" y="139.763531" style="stroke: #000000; stroke-width: 0.8"/>
      </g>
     </g>
     <g id="text_7">
      <!-- 1 -->
      <g transform="translate(43.379516 153.126031) rotate(-90) scale(0.1 -0.1)">
       <use xlink:href="#DejaVuSans-31"/>
      </g>
     </g>
    </g>
    <g id="xtick_30">
     <g id="line2d_8">
      <g>
       <use xlink:href="#m43372039ca" x="57.774205" y="139.763531" style="stroke: #000000; stroke-width: 0.8"/>
      </g>
     </g>
     <g id="text_8">
      <!-- 2 -->
      <g transform="translate(60.53358 153.126031) rotate(-90) scale(0.1 -0.1)">
       <use xlink:href="#DejaVuSans-32"/>
      </g>
     </g>
    </g>
    <g id="xtick_31">
     <g id="line2d_9">
      <g>
       <use xlink:href="#m43372039ca" x="74.928269" y="139.763531" style="stroke: #000000; stroke-width: 0.8"/>
      </g>
     </g>
     <g id="text_9">
      <!-- 3 -->
      <g transform="translate(77.687644 153.126031) rotate(-90) scale(0.1 -0.1)">
       <defs>
        <path id="DejaVuSans-33" d="M 2597 2516 
Q 3050 2419 3304 2112 
Q 3559 1806 3559 1356 
Q 3559 666 3084 287 
Q 2609 -91 1734 -91 
Q 1441 -91 1130 -33 
Q 819 25 488 141 
L 488 750 
Q 750 597 1062 519 
Q 1375 441 1716 441 
Q 2309 441 2620 675 
Q 2931 909 2931 1356 
Q 2931 1769 2642 2001 
Q 2353 2234 1838 2234 
L 1294 2234 
L 1294 2753 
L 1863 2753 
Q 2328 2753 2575 2939 
Q 2822 3125 2822 3475 
Q 2822 3834 2567 4026 
Q 2313 4219 1838 4219 
Q 1578 4219 1281 4162 
Q 984 4106 628 3988 
L 628 4550 
Q 988 4650 1302 4700 
Q 1616 4750 1894 4750 
Q 2613 4750 3031 4423 
Q 3450 4097 3450 3541 
Q 3450 3153 3228 2886 
Q 3006 2619 2597 2516 
z
" transform="scale(0.015625)"/>
       </defs>
       <use xlink:href="#DejaVuSans-33"/>
      </g>
     </g>
    </g>
    <g id="xtick_32">
     <g id="line2d_10">
      <g>
       <use xlink:href="#m43372039ca" x="92.082332" y="139.763531" style="stroke: #000000; stroke-width: 0.8"/>
      </g>
     </g>
     <g id="text_10">
      <!-- 4 -->
      <g transform="translate(94.841707 153.126031) rotate(-90) scale(0.1 -0.1)">
       <use xlink:href="#DejaVuSans-34"/>
      </g>
     </g>
    </g>
    <g id="xtick_33">
     <g id="line2d_11">
      <g>
       <use xlink:href="#m43372039ca" x="109.236396" y="139.763531" style="stroke: #000000; stroke-width: 0.8"/>
      </g>
     </g>
     <g id="text_11">
      <!-- 5 -->
      <g transform="translate(111.995771 153.126031) rotate(-90) scale(0.1 -0.1)">
       <defs>
        <path id="DejaVuSans-35" d="M 691 4666 
L 3169 4666 
L 3169 4134 
L 1269 4134 
L 1269 2991 
Q 1406 3038 1543 3061 
Q 1681 3084 1819 3084 
Q 2600 3084 3056 2656 
Q 3513 2228 3513 1497 
Q 3513 744 3044 326 
Q 2575 -91 1722 -91 
Q 1428 -91 1123 -41 
Q 819 9 494 109 
L 494 744 
Q 775 591 1075 516 
Q 1375 441 1709 441 
Q 2250 441 2565 725 
Q 2881 1009 2881 1497 
Q 2881 1984 2565 2268 
Q 2250 2553 1709 2553 
Q 1456 2553 1204 2497 
Q 953 2441 691 2322 
L 691 4666 
z
" transform="scale(0.015625)"/>
       </defs>
       <use xlink:href="#DejaVuSans-35"/>
      </g>
     </g>
    </g>
    <g id="xtick_34">
     <g id="line2d_12">
      <g>
       <use xlink:href="#m43372039ca" x="126.390459" y="139.763531" style="stroke: #000000; stroke-width: 0.8"/>
      </g>
     </g>
     <g id="text_12">
      <!-- 6 -->
      <g transform="translate(129.149834 153.126031) rotate(-90) scale(0.1 -0.1)">
       <use xlink:href="#DejaVuSans-36"/>
      </g>
     </g>
    </g>
    <g id="xtick_35">
     <g id="line2d_13">
      <g>
       <use xlink:href="#m43372039ca" x="143.544523" y="139.763531" style="stroke: #000000; stroke-width: 0.8"/>
      </g>
     </g>
     <g id="text_13">
      <!-- 7 -->
      <g transform="translate(146.303898 153.126031) rotate(-90) scale(0.1 -0.1)">
       <defs>
        <path id="DejaVuSans-37" d="M 525 4666 
L 3525 4666 
L 3525 4397 
L 1831 0 
L 1172 0 
L 2766 4134 
L 525 4134 
L 525 4666 
z
" transform="scale(0.015625)"/>
       </defs>
       <use xlink:href="#DejaVuSans-37"/>
      </g>
     </g>
    </g>
    <g id="xtick_36">
     <g id="line2d_14">
      <g>
       <use xlink:href="#m43372039ca" x="160.698587" y="139.763531" style="stroke: #000000; stroke-width: 0.8"/>
      </g>
     </g>
     <g id="text_14">
      <!-- 8 -->
      <g transform="translate(163.457962 153.126031) rotate(-90) scale(0.1 -0.1)">
       <use xlink:href="#DejaVuSans-38"/>
      </g>
     </g>
    </g>
    <g id="xtick_37">
     <g id="line2d_15">
      <g>
       <use xlink:href="#m43372039ca" x="177.85265" y="139.763531" style="stroke: #000000; stroke-width: 0.8"/>
      </g>
     </g>
     <g id="text_15">
      <!-- 9 -->
      <g transform="translate(180.612025 153.126031) rotate(-90) scale(0.1 -0.1)">
       <defs>
        <path id="DejaVuSans-39" d="M 703 97 
L 703 672 
Q 941 559 1184 500 
Q 1428 441 1663 441 
Q 2288 441 2617 861 
Q 2947 1281 2994 2138 
Q 2813 1869 2534 1725 
Q 2256 1581 1919 1581 
Q 1219 1581 811 2004 
Q 403 2428 403 3163 
Q 403 3881 828 4315 
Q 1253 4750 1959 4750 
Q 2769 4750 3195 4129 
Q 3622 3509 3622 2328 
Q 3622 1225 3098 567 
Q 2575 -91 1691 -91 
Q 1453 -91 1209 -44 
Q 966 3 703 97 
z
M 1959 2075 
Q 2384 2075 2632 2365 
Q 2881 2656 2881 3163 
Q 2881 3666 2632 3958 
Q 2384 4250 1959 4250 
Q 1534 4250 1286 3958 
Q 1038 3666 1038 3163 
Q 1038 2656 1286 2365 
Q 1534 2075 1959 2075 
z
" transform="scale(0.015625)"/>
       </defs>
       <use xlink:href="#DejaVuSans-39"/>
      </g>
     </g>
    </g>
    <g id="xtick_38">
     <g id="line2d_16">
      <g>
       <use xlink:href="#m43372039ca" x="195.006714" y="139.763531" style="stroke: #000000; stroke-width: 0.8"/>
      </g>
     </g>
     <g id="text_16">
      <!-- 10 -->
      <g transform="translate(197.766089 159.488531) rotate(-90) scale(0.1 -0.1)">
       <use xlink:href="#DejaVuSans-31"/>
       <use xlink:href="#DejaVuSans-30" transform="translate(63.623047 0)"/>
      </g>
     </g>
    </g>
    <g id="xtick_39">
     <g id="line2d_17">
      <g>
       <use xlink:href="#m43372039ca" x="212.160777" y="139.763531" style="stroke: #000000; stroke-width: 0.8"/>
      </g>
     </g>
     <g id="text_17">
      <!-- 11 -->
      <g transform="translate(214.920152 159.488531) rotate(-90) scale(0.1 -0.1)">
       <use xlink:href="#DejaVuSans-31"/>
       <use xlink:href="#DejaVuSans-31" transform="translate(63.623047 0)"/>
      </g>
     </g>
    </g>
    <g id="xtick_40">
     <g id="line2d_18">
      <g>
       <use xlink:href="#m43372039ca" x="229.314841" y="139.763531" style="stroke: #000000; stroke-width: 0.8"/>
      </g>
     </g>
     <g id="text_18">
      <!-- 12 -->
      <g transform="translate(232.074216 159.488531) rotate(-90) scale(0.1 -0.1)">
       <use xlink:href="#DejaVuSans-31"/>
       <use xlink:href="#DejaVuSans-32" transform="translate(63.623047 0)"/>
      </g>
     </g>
    </g>
    <g id="xtick_41">
     <g id="line2d_19">
      <g>
       <use xlink:href="#m43372039ca" x="246.468905" y="139.763531" style="stroke: #000000; stroke-width: 0.8"/>
      </g>
     </g>
     <g id="text_19">
      <!-- 13 -->
      <g transform="translate(249.22828 159.488531) rotate(-90) scale(0.1 -0.1)">
       <use xlink:href="#DejaVuSans-31"/>
       <use xlink:href="#DejaVuSans-33" transform="translate(63.623047 0)"/>
      </g>
     </g>
    </g>
    <g id="xtick_42">
     <g id="line2d_20">
      <g>
       <use xlink:href="#m43372039ca" x="263.622968" y="139.763531" style="stroke: #000000; stroke-width: 0.8"/>
      </g>
     </g>
     <g id="text_20">
      <!-- 14 -->
      <g transform="translate(266.382343 159.488531) rotate(-90) scale(0.1 -0.1)">
       <use xlink:href="#DejaVuSans-31"/>
       <use xlink:href="#DejaVuSans-34" transform="translate(63.623047 0)"/>
      </g>
     </g>
    </g>
    <g id="xtick_43">
     <g id="line2d_21">
      <g>
       <use xlink:href="#m43372039ca" x="280.777032" y="139.763531" style="stroke: #000000; stroke-width: 0.8"/>
      </g>
     </g>
     <g id="text_21">
      <!-- 15 -->
      <g transform="translate(283.536407 159.488531) rotate(-90) scale(0.1 -0.1)">
       <use xlink:href="#DejaVuSans-31"/>
       <use xlink:href="#DejaVuSans-35" transform="translate(63.623047 0)"/>
      </g>
     </g>
    </g>
    <g id="xtick_44">
     <g id="line2d_22">
      <g>
       <use xlink:href="#m43372039ca" x="297.931095" y="139.763531" style="stroke: #000000; stroke-width: 0.8"/>
      </g>
     </g>
     <g id="text_22">
      <!-- 16 -->
      <g transform="translate(300.69047 159.488531) rotate(-90) scale(0.1 -0.1)">
       <use xlink:href="#DejaVuSans-31"/>
       <use xlink:href="#DejaVuSans-36" transform="translate(63.623047 0)"/>
      </g>
     </g>
    </g>
    <g id="xtick_45">
     <g id="line2d_23">
      <g>
       <use xlink:href="#m43372039ca" x="315.085159" y="139.763531" style="stroke: #000000; stroke-width: 0.8"/>
      </g>
     </g>
     <g id="text_23">
      <!-- 17 -->
      <g transform="translate(317.844534 159.488531) rotate(-90) scale(0.1 -0.1)">
       <use xlink:href="#DejaVuSans-31"/>
       <use xlink:href="#DejaVuSans-37" transform="translate(63.623047 0)"/>
      </g>
     </g>
    </g>
    <g id="xtick_46">
     <g id="line2d_24">
      <g>
       <use xlink:href="#m43372039ca" x="332.239223" y="139.763531" style="stroke: #000000; stroke-width: 0.8"/>
      </g>
     </g>
     <g id="text_24">
      <!-- 18 -->
      <g transform="translate(334.998598 159.488531) rotate(-90) scale(0.1 -0.1)">
       <use xlink:href="#DejaVuSans-31"/>
       <use xlink:href="#DejaVuSans-38" transform="translate(63.623047 0)"/>
      </g>
     </g>
    </g>
    <g id="xtick_47">
     <g id="line2d_25">
      <g>
       <use xlink:href="#m43372039ca" x="349.393286" y="139.763531" style="stroke: #000000; stroke-width: 0.8"/>
      </g>
     </g>
     <g id="text_25">
      <!-- 19 -->
      <g transform="translate(352.152661 159.488531) rotate(-90) scale(0.1 -0.1)">
       <use xlink:href="#DejaVuSans-31"/>
       <use xlink:href="#DejaVuSans-39" transform="translate(63.623047 0)"/>
      </g>
     </g>
    </g>
    <g id="xtick_48">
     <g id="line2d_26">
      <g>
       <use xlink:href="#m43372039ca" x="366.54735" y="139.763531" style="stroke: #000000; stroke-width: 0.8"/>
      </g>
     </g>
     <g id="text_26">
      <!-- 20 -->
      <g transform="translate(369.306725 159.488531) rotate(-90) scale(0.1 -0.1)">
       <use xlink:href="#DejaVuSans-32"/>
       <use xlink:href="#DejaVuSans-30" transform="translate(63.623047 0)"/>
      </g>
     </g>
    </g>
    <g id="xtick_49">
     <g id="line2d_27">
      <g>
       <use xlink:href="#m43372039ca" x="383.701413" y="139.763531" style="stroke: #000000; stroke-width: 0.8"/>
      </g>
     </g>
     <g id="text_27">
      <!-- 21 -->
      <g transform="translate(386.460788 159.488531) rotate(-90) scale(0.1 -0.1)">
       <use xlink:href="#DejaVuSans-32"/>
       <use xlink:href="#DejaVuSans-31" transform="translate(63.623047 0)"/>
      </g>
     </g>
    </g>
    <g id="xtick_50">
     <g id="line2d_28">
      <g>
       <use xlink:href="#m43372039ca" x="400.855477" y="139.763531" style="stroke: #000000; stroke-width: 0.8"/>
      </g>
     </g>
     <g id="text_28">
      <!-- 22 -->
      <g transform="translate(403.614852 159.488531) rotate(-90) scale(0.1 -0.1)">
       <use xlink:href="#DejaVuSans-32"/>
       <use xlink:href="#DejaVuSans-32" transform="translate(63.623047 0)"/>
      </g>
     </g>
    </g>
    <g id="xtick_51">
     <g id="line2d_29">
      <g>
       <use xlink:href="#m43372039ca" x="418.009541" y="139.763531" style="stroke: #000000; stroke-width: 0.8"/>
      </g>
     </g>
     <g id="text_29">
      <!-- 23 -->
      <g transform="translate(420.768916 159.488531) rotate(-90) scale(0.1 -0.1)">
       <use xlink:href="#DejaVuSans-32"/>
       <use xlink:href="#DejaVuSans-33" transform="translate(63.623047 0)"/>
      </g>
     </g>
    </g>
    <g id="xtick_52">
     <g id="line2d_30">
      <g>
       <use xlink:href="#m43372039ca" x="435.163604" y="139.763531" style="stroke: #000000; stroke-width: 0.8"/>
      </g>
     </g>
     <g id="text_30">
      <!-- 24 -->
      <g transform="translate(437.922979 159.488531) rotate(-90) scale(0.1 -0.1)">
       <use xlink:href="#DejaVuSans-32"/>
       <use xlink:href="#DejaVuSans-34" transform="translate(63.623047 0)"/>
      </g>
     </g>
    </g>
    <g id="xtick_53">
     <g id="line2d_31">
      <g>
       <use xlink:href="#m43372039ca" x="452.317668" y="139.763531" style="stroke: #000000; stroke-width: 0.8"/>
      </g>
     </g>
     <g id="text_31">
      <!-- 25 -->
      <g transform="translate(455.077043 159.488531) rotate(-90) scale(0.1 -0.1)">
       <use xlink:href="#DejaVuSans-32"/>
       <use xlink:href="#DejaVuSans-35" transform="translate(63.623047 0)"/>
      </g>
     </g>
    </g>
    <g id="xtick_54">
     <g id="line2d_32">
      <g>
       <use xlink:href="#m43372039ca" x="469.471731" y="139.763531" style="stroke: #000000; stroke-width: 0.8"/>
      </g>
     </g>
     <g id="text_32">
      <!-- 26 -->
      <g transform="translate(472.231106 159.488531) rotate(-90) scale(0.1 -0.1)">
       <use xlink:href="#DejaVuSans-32"/>
       <use xlink:href="#DejaVuSans-36" transform="translate(63.623047 0)"/>
      </g>
     </g>
    </g>
    <g id="xtick_55">
     <g id="line2d_33">
      <g>
       <use xlink:href="#m43372039ca" x="486.625795" y="139.763531" style="stroke: #000000; stroke-width: 0.8"/>
      </g>
     </g>
     <g id="text_33">
      <!-- 27 -->
      <g transform="translate(489.38517 159.488531) rotate(-90) scale(0.1 -0.1)">
       <use xlink:href="#DejaVuSans-32"/>
       <use xlink:href="#DejaVuSans-37" transform="translate(63.623047 0)"/>
      </g>
     </g>
    </g>
    <g id="xtick_56">
     <g id="line2d_34">
      <g>
       <use xlink:href="#m43372039ca" x="503.779859" y="139.763531" style="stroke: #000000; stroke-width: 0.8"/>
      </g>
     </g>
     <g id="text_34">
      <!-- 28 -->
      <g transform="translate(506.539234 159.488531) rotate(-90) scale(0.1 -0.1)">
       <use xlink:href="#DejaVuSans-32"/>
       <use xlink:href="#DejaVuSans-38" transform="translate(63.623047 0)"/>
      </g>
     </g>
    </g>
   </g>
   <g id="matplotlib.axis_4">
    <g id="ytick_7">
     <g id="line2d_35">
      <g>
       <use xlink:href="#m815f9f063a" x="29.47" y="139.763531" style="stroke: #000000; stroke-width: 0.8"/>
      </g>
     </g>
     <g id="text_35">
      <!-- 0 -->
      <g transform="translate(18.6525 142.043063) scale(0.06 -0.06)">
       <use xlink:href="#DejaVuSans-30"/>
      </g>
     </g>
    </g>
    <g id="ytick_8">
     <g id="line2d_36">
      <g>
       <use xlink:href="#m815f9f063a" x="29.47" y="127.919531" style="stroke: #000000; stroke-width: 0.8"/>
      </g>
     </g>
     <g id="text_36">
      <!-- 200 -->
      <g transform="translate(11.0175 130.199062) scale(0.06 -0.06)">
       <use xlink:href="#DejaVuSans-32"/>
       <use xlink:href="#DejaVuSans-30" transform="translate(63.623047 0)"/>
       <use xlink:href="#DejaVuSans-30" transform="translate(127.246094 0)"/>
      </g>
     </g>
    </g>
    <g id="ytick_9">
     <g id="line2d_37">
      <g>
       <use xlink:href="#m815f9f063a" x="29.47" y="116.075531" style="stroke: #000000; stroke-width: 0.8"/>
      </g>
     </g>
     <g id="text_37">
      <!-- 400 -->
      <g transform="translate(11.0175 118.355063) scale(0.06 -0.06)">
       <use xlink:href="#DejaVuSans-34"/>
       <use xlink:href="#DejaVuSans-30" transform="translate(63.623047 0)"/>
       <use xlink:href="#DejaVuSans-30" transform="translate(127.246094 0)"/>
      </g>
     </g>
    </g>
    <g id="ytick_10">
     <g id="line2d_38">
      <g>
       <use xlink:href="#m815f9f063a" x="29.47" y="104.231531" style="stroke: #000000; stroke-width: 0.8"/>
      </g>
     </g>
     <g id="text_38">
      <!-- 600 -->
      <g transform="translate(11.0175 106.511063) scale(0.06 -0.06)">
       <use xlink:href="#DejaVuSans-36"/>
       <use xlink:href="#DejaVuSans-30" transform="translate(63.623047 0)"/>
       <use xlink:href="#DejaVuSans-30" transform="translate(127.246094 0)"/>
      </g>
     </g>
    </g>
    <g id="ytick_11">
     <g id="line2d_39">
      <g>
       <use xlink:href="#m815f9f063a" x="29.47" y="92.387531" style="stroke: #000000; stroke-width: 0.8"/>
      </g>
     </g>
     <g id="text_39">
      <!-- 800 -->
      <g transform="translate(11.0175 94.667063) scale(0.06 -0.06)">
       <use xlink:href="#DejaVuSans-38"/>
       <use xlink:href="#DejaVuSans-30" transform="translate(63.623047 0)"/>
       <use xlink:href="#DejaVuSans-30" transform="translate(127.246094 0)"/>
      </g>
     </g>
    </g>
    <g id="ytick_12">
     <g id="line2d_40">
      <g>
       <use xlink:href="#m815f9f063a" x="29.47" y="80.543531" style="stroke: #000000; stroke-width: 0.8"/>
      </g>
     </g>
     <g id="text_40">
      <!-- 1000 -->
      <g transform="translate(7.2 82.823063) scale(0.06 -0.06)">
       <use xlink:href="#DejaVuSans-31"/>
       <use xlink:href="#DejaVuSans-30" transform="translate(63.623047 0)"/>
       <use xlink:href="#DejaVuSans-30" transform="translate(127.246094 0)"/>
       <use xlink:href="#DejaVuSans-30" transform="translate(190.869141 0)"/>
      </g>
     </g>
    </g>
   </g>
   <g id="patch_148">
    <path d="M 29.47 139.763531 
L 29.47 80.543531 
" style="fill: none; stroke: #000000; stroke-width: 0.8; stroke-linejoin: miter; stroke-linecap: square"/>
   </g>
   <g id="patch_149">
    <path d="M 514.93 139.763531 
L 514.93 80.543531 
" style="fill: none; stroke: #000000; stroke-width: 0.8; stroke-linejoin: miter; stroke-linecap: square"/>
   </g>
   <g id="patch_150">
    <path d="M 29.47 139.763531 
L 514.93 139.763531 
" style="fill: none; stroke: #000000; stroke-width: 0.8; stroke-linejoin: miter; stroke-linecap: square"/>
   </g>
   <g id="patch_151">
    <path d="M 29.47 80.543531 
L 514.93 80.543531 
" style="fill: none; stroke: #000000; stroke-width: 0.8; stroke-linejoin: miter; stroke-linecap: square"/>
   </g>
  </g>
 </g>
 <defs>
  <clipPath id="p0a391a59f8">
   <rect x="29.47" y="9.479531" width="485.46" height="59.22"/>
  </clipPath>
  <clipPath id="peaac14b549">
   <rect x="29.47" y="80.543531" width="485.46" height="59.22"/>
  </clipPath>
 </defs>
</svg>
